<svg width="173" height="187" viewBox="0 0 173 187" fill="none" xmlns="http://www.w3.org/2000/svg">
<path d="M173 104C173 149.828 135.828 187 90 187C44.1721 187 7 149.828 7 104C7 58.1721 44.1721 21 90 21C135.828 21 173 58.1721 173 104Z" fill="#00CBCF"/>
<mask id="mask0" mask-type="alpha" maskUnits="userSpaceOnUse" x="7" y="21" width="166" height="166">
<path d="M173 104C173 149.828 135.828 187 90 187C44.1721 187 7 149.828 7 104C7 58.1721 44.1721 21 90 21C135.828 21 173 58.1721 173 104Z" fill="#43BECA"/>
</mask>
<g mask="url(#mask0)">
<path d="M89.5 103C49.9963 103 18 134.996 18 174.5C18 214.004 49.9963 246 89.5 246C129.004 246 161 214.004 161 174.5C161 134.996 129.004 103 89.5 103Z" fill="#F5F5F5"/>
<mask id="mask1" mask-type="alpha" maskUnits="userSpaceOnUse" x="18" y="103" width="143" height="143">
<path d="M89.5 103C49.9963 103 18 134.996 18 174.5C18 214.004 49.9963 246 89.5 246C129.004 246 161 214.004 161 174.5C161 134.996 129.004 103 89.5 103Z" fill="#F5F5F5"/>
</mask>
<g mask="url(#mask1)">
<path d="M155.596 147.219V133.536H138.965L136.203 130.812H133.441L130.679 128.087L127.917 125.362H125.095L123.714 124H120.952L118.19 126.725V129.449L116.81 130.812V133.536L119.571 136.261L116.81 138.986H114.048H111.286L114.048 141.71V144.435V147.159L111.286 149.884L108.524 152.609V155.333L111.286 158.058H114.048L116.81 155.333V152.609L119.571 149.884H122.333H125.095L127.857 152.609L130.619 155.333H133.381L136.143 158.058L138.905 160.783L137.524 162.145H134.762H132H129.238L127.857 163.507L125.095 160.783L122.333 158.058H119.571L116.81 160.783H114.048H111.286L108.524 163.507L105.762 166.232V168.957L103 171.681V174.406V177.13V179.855L105.762 182.58V185.304L108.524 188.029H111.286H114.048L116.81 185.304H119.571H120.952L123.714 188.029V190.754V193.478V196.203L126.476 198.928V201.652V204.377L125.095 205.739V208.464V211.188L127.857 213.913V215.275V218L130.619 215.275H132L134.762 212.551H136.143V209.826L138.905 207.101V204.377L141.667 201.652V199.164V196.44V193.715L144.429 190.991V188.266L147.19 185.541V182.817V180.092L149.952 177.367V174.643L152.714 171.918L155.476 169.193H161V147.337H155.596V147.219ZM125.095 139.045V136.32L127.857 133.595V136.32L125.095 139.045ZM133.381 152.727V150.003L136.143 147.278V150.003L138.905 152.727L136.143 155.452L133.381 152.727Z" fill="#9A9A9A"/>
<path d="M37.6033 174.537V171.806L40.3122 169.074H41.6667L44.3756 166.284H48.4978L51.2067 163.552V160.821L53.9156 158.09L56.6245 155.358V153.992L57.9789 152.627L60.6878 149.836L63.4556 147.105H64.81L67.5189 144.373H68.8733L71.5822 141.642L74.2911 138.91L77 136.179H74.2911H72.9367L70.2278 133.448H62.0422L59.3333 136.179H51.2067L48.4978 133.448L51.2067 130.657L53.9156 127.926L56.6245 125.194L59.3333 122.463H62.0422H63.4556L66.1644 125.194L67.5189 126.56L68.8733 125.194H70.2278V122.463L67.5189 119.731H64.81L62.0422 117H59.3333L56.6245 119.731H53.9156L51.2067 122.463L49.8522 123.828L47.1433 121.097H44.3756L41.6667 123.828H40.3122L37.6033 126.56H36.2489L33.54 129.291L30.8311 132.023H29.4767H26.7089L24 134.813V138.91V141.642L26.7089 144.373V158.09L24 160.821V163.552L26.7089 166.284L29.4767 169.074V171.806L32.1856 174.537V177.269L34.8944 180H37.6033V177.269V174.537Z" fill="#9A9A9A"/>
</g>
<path d="M78.575 199.697L75.8917 196.969L73.2083 194.242L70.525 191.514H67.8417L65.1583 188.787L62.4167 186H59.7333H57.05H54.3667L51.6833 188.787V191.514V194.242L49 196.969V199.697V202.424L51.6833 205.152V207.938L54.3667 210.666L57.05 213.393V224.363V227.09V232.545L59.7333 235.273V238L62.4167 235.273V232.545L65.1583 229.818V227.09L67.8417 224.363L70.525 221.576H71.8667L74.55 218.848L77.2333 216.121H78.575L81.3167 213.393V210.666L84 207.938V205.152V202.424L81.3167 199.697H78.575Z" fill="#545454"/>
<path d="M43 183L40.5 180H38L40.5 183H43Z" fill="#545454"/>
<path d="M96.8 111.659L94.04 109H91.28H88.52H85.76H83L81.62 110.329H78.8H76.04H73.28H70.52H67.76L65 112.988H67.76H70.52L73.28 115.705H76.04L78.8 118.364V121.023V123.682V126.341L81.62 129H84.38V127.671L87.14 125.012H88.52H91.28L94.04 122.353H95.42L98.18 119.694V117.035L101 114.318V111.659H98.18H96.8Z" fill="#00CBCF"/>
</g>
<path d="M143 111C138.013 111 134 115.17 134 120.353C134 125.536 143 139 143 139C143 139 152 125.477 152 120.353C152 115.23 147.93 111 143 111ZM143 124.226C140.936 124.226 139.274 122.498 139.274 120.353C139.274 118.209 140.936 116.481 143 116.481C145.064 116.481 146.726 118.209 146.726 120.353C146.726 122.498 145.064 124.226 143 124.226Z" fill="#FFC83D"/>
<path d="M36.5 112C31.2357 112 27 116.021 27 121.019C27 126.017 36.5 139 36.5 139C36.5 139 46 125.96 46 121.019C46 116.021 41.7643 112 36.5 112ZM36.5 124.753C34.3217 124.753 32.5669 123.087 32.5669 121.019C32.5669 118.951 34.3217 117.285 36.5 117.285C38.6783 117.285 40.4331 118.951 40.4331 121.019C40.4331 123.03 38.6783 124.753 36.5 124.753Z" fill="#FFC83D"/>
<path d="M89.5 77C83.175 77 78 82.4 78 89C78 95.6 89.5 113 89.5 113C89.5 113 101 95.6 101 89C101 82.34 95.825 77 89.5 77ZM89.5 93.98C86.855 93.98 84.7275 91.76 84.7275 89C84.7275 86.24 86.855 84.02 89.5 84.02C92.145 84.02 94.2725 86.24 94.2725 89C94.2725 91.76 92.145 93.98 89.5 93.98Z" fill="#FFC83D"/>
<path d="M21.2045 162C7.53547 145.835 0 125.169 0 103.793C0 72.8838 15.4214 44.5798 41.2406 28L42 29.2435C16.5897 45.5272 1.46036 73.3575 1.46036 103.793C1.46036 124.755 8.879 145.124 22.3143 160.993L21.2045 162Z" fill="#FFC83D"/>
<path d="M12.94 116C12.2938 111.969 12 107.879 12 103.848C12 72.3698 30.6242 44.1524 59.4125 32L60 33.3634C31.7405 45.2788 13.4688 72.9033 13.4688 103.848C13.4688 107.819 13.7625 111.85 14.4088 115.763L12.94 116Z" fill="#FFC83D"/>
<path d="M14.3632 141C8.78772 129.531 6 117.23 6 104.393C6 68.5594 28.717 36.6475 62.5255 25L63 26.4262C29.7846 37.8955 7.48283 69.2131 7.48283 104.393C7.48283 116.992 10.2705 129.115 15.7274 140.346L14.3632 141Z" fill="#FFC83D"/>
<path d="M87 10.5C87 10.7667 87.4118 11 87.8824 11H93.1176C93.5882 11 94 10.7667 94 10.5C94 10.2333 93.5882 10 93.1176 10H87.8824C87.4118 10 87 10.2333 87 10.5Z" fill="#FF6117"/>
<path d="M85 7C85 7.53333 85.4706 8 86.0084 8H91.9916C92.5294 8 93 7.53333 93 7C93 6.46667 92.5294 6 91.9916 6H86.0084C85.4706 6 85 6.46667 85 7Z" fill="#FF6117"/>
<path d="M98 22L86.9787 0H84L89.6596 22H98Z" fill="#7AE6E8"/>
<path d="M90 11H87V22H90V11Z" fill="#7AE6E8"/>
<path d="M87 31C87 30.4667 87.4118 30 87.8824 30H93.1176C93.5882 30 94 30.4667 94 31C94 31.5333 93.5882 32 93.1176 32H87.8824C87.4118 32 87 31.5333 87 31Z" fill="#FF6117"/>
<path d="M85 35C85 34.4667 85.4706 34 86.0084 34H91.9916C92.5294 34 93 34.4667 93 35C93 35.5333 92.5294 36 91.9916 36H86.0084C85.4706 36 85 35.5333 85 35Z" fill="#FF6117"/>
<path d="M98 20L86.9787 42H84L89.6596 20H98Z" fill="#7AE6E8"/>
<path d="M90 20H87V31H90V20Z" fill="#7AE6E8"/>
<path d="M68.2481 30L74 21H69.2248L67 30H68.2481Z" fill="#7AE6E8"/>
<path d="M68.2481 12L74 21H69.2248L67 12H68.2481Z" fill="#7AE6E8"/>
<path d="M102.384 17L78.264 17.7C74.0179 17.7 67 19.275 67 20.5C67 21.725 74.0179 23.3 78.264 23.3L102.384 24C108.282 24 112.999 22.425 112.999 20.5C113.058 18.575 108.282 17 102.384 17Z" fill="#FF6117"/>
<path d="M107 23C108.25 22.3293 109 21.4756 109 20.5C109 19.5244 108.25 18.6707 107 18C107.5 18.7317 107.812 19.5854 107.812 20.5C107.812 21.4146 107.5 22.2073 107 23Z" fill="#94D8E8"/>
<path d="M107 18C108.25 18.6707 109 19.5244 109 20.5C109 21.4756 108.25 22.3293 107 23C107.5 22.2683 107.812 21.4146 107.812 20.5C107.812 19.5854 107.5 18.7927 107 18Z" fill="#545454"/>
</svg>
