<svg width="220" height="225" viewBox="0 0 220 225" fill="none" xmlns="http://www.w3.org/2000/svg">
<g clip-path="url(#clip0)">
<path d="M180.768 207.101C180.768 216.94 173.111 225 163.787 225H73.8764C64.5518 225 56.895 216.94 56.895 207.101V17.8986C56.895 8.06004 64.5518 0 73.8764 0H163.787C173.111 0 180.768 8.06004 180.768 17.8986V207.101Z" fill="#00CBCF"/>
<path d="M133.994 11.3521C133.994 11.9576 133.577 12.4874 133.046 12.4874H104.655C104.124 12.4874 103.708 11.9954 103.708 11.3521C103.708 10.7467 104.124 10.2169 104.655 10.2169H133.046C133.539 10.2169 133.994 10.7467 133.994 11.3521Z" fill="#2EA1A4"/>
<path d="M92.1465 11.3144C92.1465 12.9037 93.4352 14.1902 95.0273 14.1902C96.6193 14.1902 97.908 12.9037 97.908 11.3144C97.908 9.72506 96.6193 8.43848 95.0273 8.43848C93.4352 8.43848 92.1465 9.72506 92.1465 11.3144Z" fill="#2EA1A4"/>
<path opacity="0.3" d="M111.592 211.642C111.592 215.464 114.7 218.529 118.49 218.529C122.319 218.529 125.389 215.426 125.389 211.642C125.389 207.82 122.281 204.755 118.49 204.755C114.7 204.755 111.592 207.858 111.592 211.642Z" fill="#BEC3CE"/>
<path d="M110.796 211.642C110.796 215.88 114.245 219.324 118.49 219.324C122.736 219.324 126.185 215.88 126.185 211.642C126.185 207.404 122.736 203.961 118.49 203.961C114.245 203.961 110.796 207.404 110.796 211.642Z" fill="#2EA1A4"/>
<path d="M177.622 24.8612H60.0032V200.177H177.622V24.8612Z" fill="#14DDED"/>
<path d="M177.622 24.8612H60.0032V200.177H177.622V24.8612Z" fill="white"/>
<path d="M180.351 57.727H163.143C162.991 56.7432 162.877 55.6458 162.877 54.5106C162.877 54.2078 162.877 53.9051 162.915 53.6024C162.915 53.5267 162.915 53.4889 162.915 53.4132C162.915 53.1105 162.953 52.8456 162.991 52.5429C162.991 52.505 162.991 52.4672 162.991 52.3915C163.029 52.1266 163.067 51.8996 163.067 51.6347C163.067 51.5968 163.067 51.5212 163.105 51.4833C163.143 51.2184 163.181 50.9535 163.256 50.7265C163.256 50.6508 163.294 50.613 163.294 50.5373C163.332 50.3103 163.408 50.0454 163.446 49.8183C163.446 49.8183 163.446 49.7805 163.446 49.7427C163.522 49.5156 163.56 49.2886 163.635 49.0615C163.635 48.9858 163.673 48.948 163.673 48.9102C163.749 48.6831 163.825 48.4939 163.901 48.2669C163.901 48.229 163.939 48.1912 163.939 48.1533C164.014 47.9641 164.09 47.8128 164.166 47.6614C164.204 47.6236 164.204 47.5479 164.242 47.5101C164.318 47.3209 164.394 47.1695 164.507 47.0181C164.545 46.9803 164.545 46.9046 164.583 46.8668C164.659 46.7154 164.735 46.6019 164.81 46.4884C164.81 46.4505 164.848 46.4127 164.886 46.4127C165.569 45.391 166.327 44.8234 167.047 44.8234C167.388 44.8234 167.729 44.9747 168.07 45.2018C168.108 45.2396 168.184 45.2775 168.222 45.3153C168.298 45.3531 168.336 45.4288 168.411 45.4667C168.449 45.5045 168.487 45.5423 168.563 45.618C168.639 45.6937 168.715 45.7694 168.79 45.8451C168.828 45.8829 168.866 45.9208 168.904 45.9586C169.018 46.0721 169.132 46.2235 169.207 46.3748C169.245 46.4127 169.245 46.4505 169.283 46.5262C169.359 46.6397 169.435 46.7532 169.511 46.9046C169.549 46.9803 169.586 47.056 169.624 47.0938C169.7 47.2073 169.738 47.3209 169.814 47.4722C169.852 47.5479 169.89 47.6236 169.928 47.6993C170.003 47.8128 170.041 47.9641 170.117 48.1155C170.155 48.1912 170.193 48.2669 170.193 48.3426C170.269 48.4939 170.307 48.6831 170.382 48.8345C170.42 48.9102 170.42 48.948 170.458 49.0237C170.534 49.2507 170.61 49.5156 170.686 49.7805C170.686 49.8183 170.686 49.8562 170.724 49.894C170.799 50.1211 170.837 50.3481 170.875 50.5751C170.875 50.6508 170.913 50.7643 170.913 50.84C170.951 51.0292 170.989 51.2184 171.027 51.4076C171.027 51.5212 171.065 51.6347 171.065 51.7104C171.103 51.8996 171.103 52.0888 171.141 52.278C171.141 52.3915 171.178 52.505 171.178 52.6185C171.216 52.8077 171.216 53.0348 171.216 53.224C171.216 53.3375 171.216 53.4132 171.216 53.5267C171.216 53.8294 171.254 54.17 171.254 54.4727C171.254 55.4187 171.141 56.7053 171.027 57.6892H174.173C174.249 57.2351 174.287 56.8188 174.325 56.3647C174.362 55.7593 174.4 55.1539 174.4 54.5106C174.4 47.2452 171.254 41.7205 167.085 41.7205C162.915 41.7205 159.769 47.2073 159.769 54.5106C159.769 55.6458 159.845 56.7053 159.997 57.727H136.23C136.079 56.7432 135.965 55.6458 135.965 54.5106C135.965 54.2078 135.965 53.9051 136.003 53.6024C136.003 53.5267 136.003 53.4889 136.003 53.4132C136.003 53.1105 136.041 52.8456 136.079 52.5429C136.079 52.505 136.079 52.4672 136.079 52.3915C136.116 52.1266 136.154 51.8996 136.154 51.6347C136.154 51.5968 136.154 51.5212 136.192 51.4833C136.23 51.2184 136.268 50.9535 136.344 50.7265C136.344 50.6508 136.382 50.613 136.382 50.5373C136.42 50.3103 136.496 50.0832 136.533 49.8562C136.533 49.8183 136.533 49.8183 136.533 49.7805C136.609 49.5534 136.647 49.3264 136.723 49.0994C136.723 49.0237 136.761 48.9858 136.799 48.9102C136.875 48.6831 136.95 48.4939 137.026 48.3047C137.026 48.2669 137.064 48.229 137.064 48.1533C137.14 48.002 137.178 47.8128 137.254 47.6614C137.292 47.6236 137.291 47.5479 137.329 47.5101C137.405 47.3209 137.481 47.1695 137.595 47.0181C137.633 46.9803 137.671 46.9046 137.671 46.8668C137.746 46.7532 137.822 46.6019 137.898 46.4884C137.936 46.4505 137.936 46.4127 137.974 46.3748C138.656 45.391 139.414 44.7855 140.134 44.7855C140.476 44.7855 140.817 44.9369 141.158 45.1639C141.196 45.2018 141.272 45.2396 141.309 45.2775C141.385 45.3153 141.423 45.391 141.499 45.4288C141.537 45.4667 141.613 45.5045 141.651 45.5802C141.726 45.6559 141.802 45.7316 141.878 45.8072C141.916 45.8451 141.954 45.8829 141.992 45.9208C142.105 46.0721 142.219 46.1856 142.295 46.337C142.333 46.3748 142.371 46.4505 142.371 46.4884C142.447 46.6019 142.522 46.7154 142.598 46.8668C142.636 46.9425 142.674 47.0181 142.712 47.056C142.788 47.1695 142.826 47.283 142.901 47.3965C142.939 47.4722 142.977 47.5479 143.015 47.6236C143.091 47.7371 143.129 47.8885 143.167 48.0398C143.205 48.1155 143.243 48.1912 143.28 48.2669C143.356 48.4182 143.394 48.5696 143.47 48.7588C143.508 48.8345 143.508 48.9102 143.546 48.948C143.622 49.175 143.697 49.4399 143.773 49.7048C143.773 49.7427 143.773 49.7805 143.811 49.8183C143.849 50.0454 143.925 50.2724 143.963 50.4995C143.963 50.5751 144.001 50.6887 144.001 50.7643C144.039 50.9536 144.076 51.1428 144.114 51.332C144.114 51.4455 144.152 51.559 144.152 51.6347C144.19 51.8239 144.19 52.0131 144.228 52.2023C144.228 52.3158 144.266 52.4293 144.266 52.5429C144.266 52.7321 144.304 52.9591 144.304 53.1483C144.304 53.2618 144.304 53.3375 144.304 53.451C144.304 53.7538 144.342 54.0943 144.342 54.397C144.342 55.3431 144.228 56.6296 144.114 57.6135H147.26C147.336 57.1594 147.374 56.7053 147.412 56.2891C147.45 55.6836 147.488 55.0782 147.488 54.4349C147.488 47.1695 144.342 41.6448 140.172 41.6448C136.003 41.6448 132.857 47.1317 132.857 54.4349C132.857 55.5701 132.932 56.6296 133.084 57.6513H108.787C108.635 56.6675 108.522 55.5701 108.522 54.4349C108.522 54.1322 108.522 53.8294 108.56 53.5267C108.56 53.451 108.56 53.4132 108.56 53.3375C108.56 53.0348 108.597 52.7699 108.635 52.4672C108.635 52.4293 108.635 52.3915 108.635 52.3158C108.673 52.0509 108.711 51.8239 108.711 51.559C108.711 51.5212 108.711 51.4455 108.749 51.4076C108.787 51.1428 108.825 50.8779 108.901 50.6508C108.901 50.5751 108.939 50.5373 108.939 50.4616C108.977 50.2346 109.052 50.0075 109.09 49.7805C109.09 49.7427 109.09 49.7427 109.09 49.7048C109.166 49.4778 109.204 49.2507 109.28 49.0237C109.318 48.948 109.318 48.9102 109.356 48.8345C109.431 48.6074 109.507 48.4182 109.583 48.229C109.583 48.1912 109.621 48.1533 109.621 48.0777C109.697 47.9263 109.735 47.7749 109.81 47.5857C109.848 47.5479 109.848 47.4722 109.886 47.4344C109.962 47.2452 110.038 47.0938 110.152 46.9425C110.19 46.9046 110.189 46.8289 110.227 46.7911C110.303 46.6776 110.379 46.5262 110.455 46.4127C110.493 46.3748 110.493 46.337 110.531 46.2992C111.213 45.3153 111.971 44.7099 112.691 44.7099C113.032 44.7099 113.374 44.8612 113.715 45.0883C113.753 45.1261 113.828 45.1639 113.866 45.2018C113.942 45.2396 113.98 45.3153 114.056 45.3531C114.094 45.391 114.17 45.4288 114.207 45.5045C114.283 45.5802 114.359 45.6559 114.435 45.7316C114.473 45.7694 114.511 45.8072 114.549 45.8829C114.662 45.9964 114.776 46.1478 114.852 46.2992C114.89 46.337 114.928 46.4127 114.928 46.4505C115.003 46.564 115.079 46.6776 115.155 46.7911C115.193 46.8668 115.231 46.9425 115.269 47.0181C115.345 47.1317 115.382 47.2452 115.458 47.3587C115.496 47.4344 115.534 47.5101 115.572 47.5857C115.648 47.6993 115.686 47.8506 115.724 47.9641C115.762 48.0398 115.799 48.1155 115.837 48.229C115.913 48.3804 115.951 48.5318 115.989 48.721C116.027 48.7966 116.027 48.8723 116.065 48.948C116.141 49.175 116.216 49.4399 116.292 49.667C116.292 49.7048 116.292 49.7427 116.33 49.7805C116.368 50.0075 116.444 50.2346 116.482 50.4616C116.482 50.5373 116.52 50.6508 116.52 50.7265C116.558 50.9157 116.595 51.1049 116.633 51.2941C116.633 51.4076 116.671 51.5212 116.671 51.5968C116.709 51.786 116.709 51.9752 116.747 52.1644C116.747 52.278 116.785 52.3915 116.785 52.505C116.785 52.6942 116.823 52.9213 116.823 53.1105C116.823 53.224 116.823 53.2997 116.823 53.4132C116.823 53.7159 116.861 54.0565 116.861 54.3592C116.861 55.3052 116.747 56.5918 116.633 57.5756H119.779C119.855 57.1216 119.893 56.6675 119.931 56.2134C119.969 55.6079 120.007 55.0025 120.007 54.3592C120.007 47.0938 116.861 41.5691 112.691 41.5691C108.522 41.5691 105.376 47.056 105.376 54.3592C105.376 55.4944 105.451 56.554 105.603 57.5756H83.694C83.5424 56.5918 83.4286 55.4944 83.4286 54.3592C83.4286 54.0565 83.4286 53.7538 83.4665 53.451C83.4665 53.3753 83.4665 53.3375 83.4665 53.2618C83.4665 52.9591 83.5044 52.6942 83.5424 52.4293C83.5424 52.3915 83.5424 52.3158 83.5424 52.278C83.5803 52.0131 83.6182 51.786 83.6182 51.559C83.6182 51.5212 83.6182 51.4455 83.6561 51.4076C83.694 51.1428 83.7319 50.8779 83.8077 50.6508C83.8077 50.5751 83.8456 50.5373 83.8456 50.4616C83.8835 50.2346 83.9593 50.0075 83.9972 49.7805C83.9972 49.7427 83.9972 49.7427 84.0351 49.7048C84.1109 49.4778 84.1488 49.2507 84.2246 49.0237C84.2625 48.948 84.2625 48.9102 84.3005 48.8345C84.3763 48.6074 84.4521 48.4182 84.5279 48.229C84.5279 48.1912 84.5658 48.1533 84.5658 48.0777C84.6416 47.9263 84.6795 47.7749 84.7553 47.6236C84.7932 47.5857 84.7932 47.5101 84.8311 47.4722C84.9069 47.283 84.9827 47.1317 85.0965 46.9803C85.1344 46.9425 85.1723 46.8668 85.1723 46.8289C85.2481 46.7154 85.3239 46.564 85.3997 46.4505C85.4376 46.4127 85.4376 46.3748 85.4755 46.337C86.1578 45.3531 86.9159 44.7477 87.6361 44.7477C87.9772 44.7477 88.3184 44.8991 88.6595 45.1261C88.6974 45.1639 88.7732 45.2018 88.8111 45.2396C88.8869 45.2775 88.9249 45.3531 89.0007 45.391C89.0386 45.4288 89.1144 45.4667 89.1523 45.5424C89.2281 45.618 89.3039 45.6937 89.3797 45.7694C89.4176 45.8072 89.4555 45.8451 89.4934 45.9208C89.6071 46.0343 89.7209 46.1856 89.7967 46.337C89.8346 46.3748 89.8725 46.4505 89.8725 46.4884C89.9483 46.6019 90.0241 46.7154 90.0999 46.8289C90.1378 46.9046 90.1757 46.9803 90.2136 47.056C90.2894 47.1695 90.3273 47.283 90.4031 47.3965C90.441 47.4722 90.479 47.5479 90.5169 47.6236C90.5548 47.7371 90.6306 47.8885 90.6685 48.002C90.7064 48.0777 90.7443 48.1533 90.7822 48.2669C90.858 48.4182 90.8959 48.5696 90.9338 48.7588C90.9717 48.8345 90.9717 48.9102 91.0096 48.9858C91.0854 49.2129 91.1612 49.4778 91.2371 49.7048C91.2371 49.7427 91.2371 49.7805 91.275 49.8183C91.3129 50.0454 91.3887 50.2724 91.4266 50.4995C91.4645 50.5751 91.4645 50.6887 91.4645 50.7643C91.5024 50.9536 91.5403 51.1428 91.5782 51.332C91.5782 51.4455 91.6161 51.559 91.6161 51.6347C91.654 51.8239 91.654 52.0131 91.6919 52.2023C91.6919 52.3158 91.7298 52.4293 91.7298 52.5429C91.7298 52.7321 91.7677 52.9591 91.7677 53.1483C91.7677 53.2618 91.7677 53.3375 91.7677 53.451C91.7677 53.7538 91.8056 54.0943 91.8056 54.397C91.8056 55.3431 91.6919 56.6296 91.5782 57.6135H94.7243C94.8001 57.1594 94.838 56.7053 94.8759 56.2512C94.9138 55.6458 94.9517 55.0403 94.9517 54.397C94.9517 47.1317 91.8056 41.6069 87.6361 41.6069C83.4665 41.6069 80.3204 47.0938 80.3204 54.397C80.3204 55.5323 80.3963 56.5918 80.5479 57.6135H72.0193L70.124 58.8622V162.053C70.124 162.053 75.4686 161.751 83.9593 161.107H180.465V57.727H180.351Z" fill="#8B8B8B"/>
<path d="M220 148.544L86.878 145.631L83.3149 50.6509L216.134 53.8295L220 148.544Z" fill="#707070"/>
<path d="M219.09 148.507L86.878 145.631L83.3149 50.6509L216.134 54.1322L219.09 148.507Z" fill="#8D8D8D"/>
<path d="M214.617 54.6999L214.921 150.512L82.4051 147.636L81.4954 51.7861" fill="#AAAAAA"/>
<path d="M213.708 151.647L80.5857 148.771L81.4954 51.7861L214.617 54.6999L213.708 151.647Z" fill="#C8C8C8"/>
<path d="M138.993 133.47L138.755 144.366L199.884 145.696L200.122 134.8L138.993 133.47Z" fill="#B1B1B1"/>
<path d="M169.473 145.177L153.894 144.836L154.121 133.635L169.7 133.976L169.473 145.177ZM154.197 144.533L169.169 144.874L169.397 134.279L154.424 133.938L154.197 144.533Z" fill="#A9D8D2"/>
<path d="M184.748 145.517L169.169 145.177L169.397 133.976L184.976 134.316L184.748 145.517ZM169.473 144.874L184.445 145.214L184.673 134.619L169.7 134.279L169.473 144.874Z" fill="#A9D8D2"/>
<path d="M200.062 145.82L184.483 145.479L184.711 134.279L200.289 134.619L200.062 145.82ZM184.786 145.214L199.759 145.555L199.986 134.96L185.014 134.619L184.786 145.214Z" fill="#A9D8D2"/>
<path d="M140.855 135.603L140.4 135.83L140.324 135.565L140.893 135.3H141.196L141.158 137.798H140.817L140.855 135.603Z" fill="#8C9DB5"/>
<path d="M156.017 138.138V137.949L156.282 137.684C156.926 137.079 157.23 136.776 157.23 136.398C157.23 136.133 157.116 135.906 156.737 135.906C156.509 135.906 156.32 136.019 156.206 136.095L156.092 135.868C156.282 135.717 156.509 135.603 156.813 135.641C157.343 135.641 157.571 136.019 157.571 136.398C157.571 136.852 157.23 137.23 156.661 137.722L156.471 137.911L157.609 137.949V138.214L156.017 138.138Z" fill="#8C9DB5"/>
<path d="M171.217 138.063C171.292 138.138 171.52 138.214 171.785 138.252C172.24 138.252 172.354 137.987 172.354 137.76C172.354 137.419 172.05 137.268 171.709 137.23H171.52V136.965H171.709C171.975 136.965 172.278 136.852 172.278 136.549C172.278 136.36 172.164 136.171 171.861 136.171C171.671 136.171 171.444 136.246 171.368 136.322L171.292 136.057C171.444 135.944 171.671 135.868 171.937 135.868C172.429 135.868 172.657 136.171 172.657 136.473C172.657 136.738 172.505 136.965 172.164 137.041C172.467 137.117 172.733 137.344 172.695 137.684C172.695 138.1 172.354 138.441 171.747 138.403C171.482 138.403 171.216 138.29 171.103 138.214L171.217 138.063Z" fill="#8C9DB5"/>
<path d="M187.288 138.82V138.138L186.113 138.101V137.873L187.288 136.284H187.667L187.629 137.836H187.97V138.101H187.629V138.782L187.288 138.82ZM187.326 137.873V137.041C187.326 136.927 187.326 136.776 187.364 136.663C187.288 136.814 187.212 136.927 187.136 137.041L186.492 137.873H187.326Z" fill="#8C9DB5"/>
<path d="M213.291 115.207L80.1687 112.293L102.95 148.431L208.666 141.052L213.291 115.207Z" fill="#E8E8E8"/>
<path d="M201.047 130.154C196.082 145.479 79.3728 149.604 79.3728 149.604L81.4955 51.7861L214.617 54.6999L212.836 136.171C212.836 136.171 212.722 141.279 207.529 141.128C199.91 140.863 201.047 130.154 201.047 130.154Z" fill="white"/>
<path d="M148.473 144.571L138.884 144.496L139.111 133.597L195.93 134.846C195.93 134.846 187.288 138.819 173.832 140.976C161.816 142.906 148.473 144.571 148.473 144.571Z" fill="#F2F9F8"/>
<path d="M214.617 54.6998L81.4954 51.7861L83.3148 50.6509L216.437 53.5268L214.617 54.6998Z" fill="#FA364D"/>
<path d="M214.617 54.6998L81.4954 51.7861L83.3148 50.6509L216.437 53.5268L214.617 54.6998Z" fill="#6E6E6E"/>
<path d="M216.892 65.6357L214.352 67.4899L214.617 54.6998L216.437 53.5267L216.892 65.6357Z" fill="#FA364D"/>
<path d="M216.892 65.6357L214.352 67.4899L214.617 54.6998L216.437 53.5267L216.892 65.6357Z" fill="#5A5A5A"/>
<path d="M81.4902 51.8153L81.2112 64.6029L214.307 67.4976L214.586 54.7101L81.4902 51.8153Z" fill="#2EA1A4"/>
<path d="M95.9373 58.5216C95.8994 59.7704 96.885 60.7921 98.1358 60.8299C99.3867 60.8677 100.41 59.8839 100.448 58.6351C100.486 57.3864 99.5004 56.3647 98.2495 56.3269C96.9987 56.289 95.9752 57.2729 95.9373 58.5216Z" fill="#565656"/>
<path d="M98.2116 57.0081C96.9608 56.8567 97.1503 54.889 96.7333 52.1267L100.827 51.0293L92.3743 50.8401C92.6017 55.8729 94.6486 59.5434 97.8326 59.9597C97.8326 59.9597 99.273 60.3381 99.5004 58.6731C99.7278 56.9324 98.2116 57.0081 98.2116 57.0081Z" fill="#565656"/>
<path d="M101.85 51.0293L104.845 51.1049C104.996 50.1211 105.11 49.0994 105.11 48.0777C105.262 41.1907 102.381 35.893 98.4389 35.8174C94.4967 35.7417 91.3885 40.888 91.2369 47.775C91.0853 54.662 93.9661 59.9596 97.9082 60.0353C97.9082 60.0353 99.3865 60.2624 99.4244 58.5974C99.4623 56.8567 97.984 57.0838 97.984 57.0838C96.1267 57.0459 94.1177 53.0727 94.2314 47.8507C94.3451 42.6287 96.5057 38.7689 98.4009 38.8068C100.258 38.8446 102.267 42.8179 102.154 48.0399C102.154 48.9102 102.002 50.1589 101.85 51.0293Z" fill="#D5EFEC"/>
<path d="M97.9841 57.0838C96.1268 57.046 94.1178 53.0727 94.2315 47.8507C94.3074 44.5586 95.1792 41.8341 96.3163 40.2448C93.1702 43.7639 93.4734 51.0672 94.3832 53.6403C95.1413 55.6837 96.051 57.3487 98.4011 57.6514C99.1971 57.7649 99.4245 59.657 98.439 60.0354C98.856 59.9597 99.4245 59.6191 99.4245 58.5974C99.5003 56.8189 97.9841 57.0838 97.9841 57.0838Z" fill="#48A39A"/>
<path d="M104.276 50.3481C102.609 50.386 102.95 50.386 102.912 48.0777C102.798 43.4233 101.244 40.1312 99.3108 39.1095C100.865 40.1312 102.267 43.6504 102.154 48.0399C102.116 48.9102 102.002 50.1589 101.85 51.0671L104.845 51.1428C104.921 50.7266 104.959 50.3103 104.997 49.8562C104.807 50.2725 104.542 50.3481 104.276 50.3481Z" fill="#48A39A"/>
<path d="M119.779 59.0136C119.741 60.2624 120.727 61.2841 121.978 61.3219C123.229 61.3598 124.252 60.3759 124.29 59.1272C124.328 57.8784 123.342 56.8567 122.092 56.8189C120.841 56.781 119.779 57.8027 119.779 59.0136Z" fill="#565656"/>
<path d="M122.016 57.5379C120.765 57.3865 120.954 55.4188 120.538 52.6565L124.631 51.5591L116.178 51.3699C116.406 56.4027 118.453 60.0732 121.637 60.4894C121.637 60.4894 123.077 60.8679 123.305 59.2029C123.532 57.4622 122.016 57.5379 122.016 57.5379Z" fill="#565656"/>
<path d="M125.693 51.559L128.687 51.6347C128.839 50.6509 128.952 49.6292 128.952 48.6075C129.104 41.7205 126.223 36.4228 122.281 36.3471C118.339 36.2715 115.231 41.4178 115.079 48.3048C114.928 55.1917 117.808 60.4894 121.75 60.5651C121.75 60.5651 123.229 60.7921 123.267 59.1272C123.305 57.3865 121.826 57.6135 121.826 57.6135C119.969 57.5757 117.96 53.6024 118.074 48.3804C118.187 43.1584 120.348 39.2987 122.243 39.3365C124.101 39.3744 126.11 43.3476 125.996 48.5696C125.958 49.4021 125.806 50.6509 125.693 51.559Z" fill="#D5EFEC"/>
<path d="M121.788 57.5756C119.931 57.5378 117.922 53.5645 118.036 48.3425C118.112 45.0504 118.983 42.3259 120.121 40.7366C116.974 44.2557 117.278 51.559 118.187 54.1321C118.945 56.1755 119.855 57.8405 122.205 58.1432C122.963 58.2568 123.229 60.1488 122.243 60.5272C122.66 60.4515 123.229 60.1109 123.229 59.0893C123.305 57.3486 121.788 57.5756 121.788 57.5756Z" fill="#48A39A"/>
<path d="M128.081 50.8779C126.413 50.9158 126.754 50.9158 126.716 48.6075C126.602 43.9531 125.048 40.661 123.115 39.6393C124.669 40.661 126.072 44.1801 125.958 48.5697C125.92 49.44 125.806 50.6887 125.655 51.5969L128.649 51.6726C128.725 51.2563 128.763 50.8401 128.801 50.386C128.611 50.8022 128.384 50.8779 128.081 50.8779Z" fill="#48A39A"/>
<path d="M145.82 59.5813C145.782 60.83 146.768 61.8517 148.019 61.8895C149.269 61.9274 150.293 60.9435 150.331 59.6948C150.369 58.4461 149.383 57.4244 148.132 57.3865C146.881 57.3487 145.858 58.3704 145.82 59.5813Z" fill="#565656"/>
<path d="M148.094 58.1054C146.844 57.954 147.033 55.9863 146.616 53.224L150.71 52.1266L142.257 51.9374C142.485 56.9702 144.531 60.6407 147.715 61.0569C147.715 61.0569 149.156 61.4354 149.383 59.7704C149.611 58.0297 148.094 58.1054 148.094 58.1054Z" fill="#565656"/>
<path d="M151.733 52.1267L154.728 52.2024C154.879 51.2185 154.993 50.1968 154.993 49.1751C155.145 42.2881 152.264 36.9904 148.322 36.9148C144.38 36.8391 141.272 41.9854 141.12 48.8724C140.968 55.7594 143.849 61.0571 147.791 61.1327C147.791 61.1327 149.27 61.3598 149.307 59.6948C149.345 57.9541 147.867 58.1812 147.867 58.1812C146.01 58.1433 144.001 54.1701 144.114 48.9481C144.228 43.7261 146.389 39.8663 148.284 39.9042C150.141 39.942 152.15 43.9153 152.037 49.1373C151.999 49.9698 151.885 51.2185 151.733 52.1267Z" fill="#D5EFEC"/>
<path d="M147.867 58.1433C146.01 58.1054 144.001 54.1322 144.114 48.9102C144.19 45.618 145.062 42.8935 146.199 41.3042C143.053 44.8234 143.356 52.1266 144.266 54.6998C145.024 56.7432 145.934 58.4081 148.284 58.7109C149.042 58.8244 149.307 60.7164 148.322 61.0948C148.739 61.0191 149.307 60.6786 149.307 59.6569C149.383 57.9162 147.867 58.1433 147.867 58.1433Z" fill="#48A39A"/>
<path d="M154.159 51.4456C152.491 51.4834 152.832 51.4834 152.795 49.1751C152.681 44.5207 151.127 41.2286 149.194 40.2069C150.748 41.2286 152.15 44.7478 152.036 49.1373C151.999 50.0076 151.885 51.2564 151.733 52.1645L154.728 52.2402C154.804 51.824 154.841 51.4077 154.879 50.9536C154.69 51.3699 154.425 51.4456 154.159 51.4456Z" fill="#48A39A"/>
<path d="M171.406 60.1488C171.368 61.3976 172.353 62.4192 173.604 62.4571C174.855 62.4949 175.879 61.5111 175.917 60.2623C175.954 59.0136 174.969 57.9919 173.718 57.9541C172.467 57.9162 171.406 58.9001 171.406 60.1488Z" fill="#565656"/>
<path d="M173.642 58.673C172.391 58.5217 172.581 56.5539 172.164 53.7916L176.258 52.6942L167.805 52.505C168.032 57.5378 170.079 61.2083 173.263 61.6246C173.263 61.6246 174.704 62.003 174.931 60.338C175.158 58.5973 173.642 58.673 173.642 58.673Z" fill="#565656"/>
<path d="M177.319 52.6943L180.314 52.77C180.465 51.7861 180.579 50.7644 180.579 49.7427C180.73 42.8558 177.85 37.5581 173.908 37.4824C169.965 37.4067 166.857 42.553 166.706 49.44C166.554 56.327 169.435 61.6247 173.377 61.7004C173.377 61.7004 174.855 61.9274 174.893 60.2624C174.931 58.5217 173.453 58.7488 173.453 58.7488C171.595 58.711 169.586 54.7377 169.7 49.5157C169.814 44.2937 171.974 40.434 173.87 40.4718C175.727 40.5096 177.736 44.4829 177.622 49.7049C177.584 50.5374 177.471 51.7861 177.319 52.6943Z" fill="#D5EFEC"/>
<path d="M173.453 58.7109C171.595 58.673 169.586 54.6998 169.7 49.4778C169.776 46.1857 170.648 43.4611 171.785 41.8718C168.639 45.391 168.942 52.6942 169.852 55.2674C170.61 57.3108 171.519 58.9758 173.87 59.2785C174.666 59.392 174.893 61.284 173.907 61.6624C174.324 61.5868 174.893 61.2462 174.893 60.2245C174.931 58.4838 173.453 58.7109 173.453 58.7109Z" fill="#48A39A"/>
<path d="M179.707 52.0131C178.039 52.0509 178.38 52.0509 178.342 49.7426C178.229 45.0882 176.675 41.7961 174.741 40.7744C176.296 41.7961 177.698 45.3153 177.584 49.7048C177.546 50.5751 177.433 51.8239 177.281 52.732L180.276 52.8077C180.351 52.3915 180.389 51.9752 180.427 51.5211C180.238 51.9374 180.01 51.9752 179.707 52.0131Z" fill="#48A39A"/>
<path d="M195.286 60.6786C195.248 61.9273 196.234 62.949 197.484 62.9869C198.735 63.0247 199.759 62.0409 199.797 60.7921C199.835 59.5434 198.849 58.5217 197.598 58.4838C196.347 58.446 195.324 59.4299 195.286 60.6786Z" fill="#565656"/>
<path d="M197.56 59.2028C196.309 59.0514 196.499 57.0837 196.082 54.3214L200.176 53.224L191.723 53.0348C191.95 58.0676 193.997 61.7381 197.181 62.1544C197.181 62.1544 198.622 62.5328 198.849 60.8678C199.039 59.0893 197.56 59.2028 197.56 59.2028Z" fill="#565656"/>
<path d="M201.199 53.1862L204.194 53.2619C204.345 52.2781 204.459 51.2564 204.459 50.2347C204.611 43.3477 201.73 38.05 197.788 37.9743C193.846 37.8987 190.737 43.045 190.586 49.932C190.434 56.8189 193.315 62.1166 197.257 62.1923C197.257 62.1923 198.735 62.4193 198.773 60.7544C198.811 59.0137 197.333 59.2407 197.333 59.2407C195.476 59.2029 193.467 55.2296 193.58 50.0076C193.694 44.7856 195.855 40.9259 197.75 40.9637C199.607 41.0016 201.616 44.9748 201.502 50.1968C201.464 51.0672 201.351 52.3159 201.199 53.1862Z" fill="#D5EFEC"/>
<path d="M197.333 59.2407C195.475 59.2028 193.466 55.2296 193.58 50.0076C193.656 46.7154 194.528 43.9909 195.665 42.4016C192.519 45.9208 192.822 53.224 193.732 55.7972C194.49 57.8406 195.4 59.5055 197.75 59.8083C198.508 59.9218 198.773 61.8138 197.788 62.1922C198.205 62.1165 198.773 61.776 198.773 60.7543C198.811 58.9758 197.333 59.2407 197.333 59.2407Z" fill="#48A39A"/>
<path d="M203.625 52.505C201.957 52.5428 202.298 52.5428 202.26 50.2346C202.147 45.5802 200.593 42.2881 198.659 41.2664C200.214 42.2881 201.616 45.8072 201.502 50.1967C201.464 51.0671 201.351 52.3158 201.199 53.224L204.194 53.2997C204.269 52.8834 204.307 52.4672 204.345 52.0131C204.118 52.4672 203.89 52.505 203.625 52.505Z" fill="#48A39A"/>
<path d="M95.2927 74.1498C95.4823 74.2633 95.7855 74.3769 96.1266 74.4147C96.5815 74.4147 96.8847 74.1876 96.8847 73.8092C96.8847 73.4687 96.6952 73.2795 96.2404 73.0903C95.6718 72.8632 95.2927 72.5605 95.3306 72.0686C95.3306 71.501 95.8234 71.1226 96.5057 71.1226C96.8847 71.1226 97.1501 71.2361 97.3017 71.3118L97.1501 71.6902C97.0364 71.6145 96.8089 71.501 96.4678 71.501C95.975 71.501 95.7855 71.7658 95.7855 72.0307C95.7855 72.3713 95.975 72.5227 96.4678 72.7497C97.0743 73.0146 97.3775 73.2795 97.3396 73.8092C97.3396 74.3768 96.9226 74.8309 96.0508 74.7931C95.7097 74.7931 95.3306 74.6796 95.1411 74.5282L95.2927 74.1498Z" fill="#FF6117"/>
<path d="M100.107 74.1119C100.107 74.3768 100.107 74.6038 100.107 74.793H99.6897V74.3768C99.576 74.566 99.2727 74.8309 98.8179 74.8309C98.4009 74.8309 97.946 74.6038 97.946 73.6956L97.984 72.182H98.4388L98.4009 73.5821C98.4009 74.074 98.5146 74.4146 98.9695 74.4146C99.2727 74.4146 99.5002 74.2254 99.576 73.9984C99.6139 73.9227 99.6139 73.847 99.6139 73.7713L99.6518 72.182H100.107V74.1119Z" fill="#FF6117"/>
<path d="M100.903 72.9768C100.903 72.7119 100.903 72.4849 100.903 72.2956H101.32V72.7119C101.433 72.4849 101.737 72.2578 102.191 72.2578C102.533 72.2578 103.101 72.4849 103.063 73.3552L103.025 74.8688H102.57L102.608 73.393C102.608 72.9768 102.457 72.6362 102.04 72.6362C101.737 72.6362 101.471 72.8254 101.395 73.0903C101.358 73.166 101.358 73.2417 101.358 73.3173L101.32 74.8688H100.865L100.903 72.9768Z" fill="#FF6117"/>
<path d="M113.601 73.5444C113.601 73.0524 113.563 72.447 113.563 71.9929C113.449 72.4091 113.26 72.8632 113.07 73.3552L112.388 75.058H112.047L111.516 73.3552C111.364 72.8632 111.213 72.3713 111.137 71.9551C111.099 72.4091 111.061 73.0146 111.023 73.5444L110.909 75.058H110.455L110.796 71.501H111.402L111.971 73.2416C112.122 73.6957 112.236 74.0741 112.312 74.4525C112.426 74.112 112.539 73.6957 112.729 73.2416L113.411 71.5388H114.018L114.169 75.0958H113.714L113.601 73.5444Z" fill="#283042"/>
<path d="M117.202 73.8849C117.164 74.8309 116.519 75.2472 115.875 75.2093C115.193 75.2093 114.662 74.6796 114.662 73.8471C114.662 72.9768 115.269 72.4848 115.951 72.5227C116.709 72.5605 117.202 73.1281 117.202 73.8849ZM115.155 73.8849C115.155 74.4525 115.458 74.8688 115.913 74.8688C116.368 74.8688 116.709 74.4525 116.709 73.8849C116.709 73.4687 116.519 72.9011 115.951 72.9011C115.42 72.9011 115.155 73.393 115.155 73.8849Z" fill="#283042"/>
<path d="M117.77 73.3552C117.77 73.0903 117.77 72.8633 117.77 72.6741H118.187V73.0903C118.339 72.8633 118.604 72.6362 119.059 72.6362C119.4 72.6362 119.969 72.8633 119.931 73.7336L119.893 75.2472H119.438L119.476 73.7714C119.476 73.3552 119.324 73.0146 118.907 73.0146C118.604 73.0146 118.339 73.2038 118.263 73.4687C118.225 73.5444 118.225 73.6201 118.225 73.6958L118.187 75.2472H117.732L117.77 73.3552Z" fill="#283042"/>
<path d="M126.868 72.22L125.768 72.1821V71.8037L128.422 71.8794V72.2578L127.322 72.22L127.247 75.3986H126.792L126.868 72.22Z" fill="#283042"/>
<path d="M130.658 74.793C130.658 75.0579 130.658 75.285 130.658 75.4742H130.241V75.0579C130.127 75.2471 129.824 75.512 129.369 75.512C128.952 75.512 128.497 75.285 128.497 74.3768L128.535 72.8632H128.99L128.952 74.2633C128.952 74.7552 129.066 75.0958 129.521 75.0958C129.824 75.0958 130.051 74.9065 130.127 74.6795C130.165 74.6038 130.165 74.5281 130.165 74.4525L130.203 72.8632H130.658V74.793Z" fill="#283042"/>
<path d="M131.681 74.3012C131.681 74.9445 132.06 75.2094 132.553 75.2094C132.894 75.2094 133.084 75.1716 133.273 75.0959L133.349 75.4364C133.198 75.5121 132.894 75.5878 132.477 75.5878C131.681 75.5878 131.227 75.058 131.227 74.2634C131.227 73.5066 131.719 72.9011 132.477 72.9011C133.311 72.9011 133.539 73.6579 133.501 74.1499C133.501 74.2634 133.501 74.3012 133.463 74.3769L131.681 74.3012ZM133.084 73.9985C133.084 73.6958 132.97 73.2417 132.44 73.2417C131.985 73.2417 131.757 73.6579 131.719 73.9985H133.084Z" fill="#283042"/>
<path d="M142.333 75.7391L141.499 72.1443H141.992L142.371 73.9606C142.484 74.4147 142.56 74.8688 142.598 75.2094C142.674 74.8688 142.788 74.4526 142.901 73.9606L143.432 72.1821H143.925L144.304 73.9985C144.38 74.4147 144.493 74.8688 144.531 75.2094C144.607 74.831 144.721 74.4147 144.834 73.9985L145.365 72.22H145.82L144.721 75.777H144.228L143.811 73.9228C143.697 73.4687 143.659 73.1281 143.621 72.7497C143.546 73.0903 143.47 73.4687 143.318 73.9228L142.788 75.777L142.333 75.7391Z" fill="#283042"/>
<path d="M146.351 74.6417C146.351 75.285 146.73 75.5499 147.222 75.5499C147.564 75.5499 147.753 75.512 147.943 75.4363L148.018 75.7769C147.867 75.8526 147.564 75.9283 147.147 75.9283C146.351 75.9283 145.896 75.3985 145.896 74.6038C145.896 73.847 146.389 73.2416 147.147 73.2416C147.981 73.2416 148.208 73.9984 148.17 74.4903C148.17 74.566 148.17 74.6417 148.132 74.7174L146.351 74.6417ZM147.715 74.339C147.715 74.0362 147.601 73.5821 147.071 73.5821C146.616 73.5821 146.389 73.9984 146.351 74.339H147.715Z" fill="#283042"/>
<path d="M151.013 72.182L150.937 75.2849C150.937 75.512 150.937 75.7769 150.937 75.9282H150.52V75.4741C150.369 75.739 150.065 75.9661 149.648 75.9661C149.042 75.9661 148.549 75.3985 148.587 74.6416C148.587 73.7713 149.156 73.2794 149.762 73.2794C150.141 73.2794 150.406 73.4686 150.52 73.6956L150.558 72.182H151.013ZM150.482 74.4146C150.482 74.3389 150.482 74.2632 150.482 74.2254C150.406 73.9227 150.179 73.6956 149.838 73.6578C149.345 73.6578 149.042 74.074 149.042 74.6416C149.042 75.1714 149.269 75.5877 149.762 75.5877C150.065 75.5877 150.369 75.3985 150.444 75.0579C150.444 74.9822 150.482 74.9444 150.482 74.8687V74.4146Z" fill="#283042"/>
<path d="M157.874 72.901L156.774 72.8631V72.4847L159.428 72.5604V72.9388L158.329 72.901L158.253 76.0796H157.798L157.874 72.901Z" fill="#283042"/>
<path d="M159.769 72.3712H160.224L160.186 73.9605C160.262 73.847 160.375 73.7335 160.527 73.6578C160.679 73.5821 160.83 73.5443 161.02 73.5443C161.361 73.5443 161.93 73.7713 161.892 74.6417L161.854 76.1553H161.399L161.437 74.6795C161.437 74.2632 161.285 73.9227 160.868 73.9227C160.565 73.9227 160.338 74.1119 160.224 74.3768C160.186 74.4525 160.186 74.4903 160.186 74.6038L160.148 76.1553H159.693L159.769 72.3712Z" fill="#283042"/>
<path d="M164.81 75.5499C164.81 75.8147 164.81 76.0418 164.81 76.231H164.393V75.8147C164.28 76.004 163.976 76.2688 163.521 76.2688C163.105 76.2688 162.65 76.0418 162.65 75.1336L162.688 73.62H163.142L163.105 75.0201C163.105 75.512 163.218 75.8526 163.673 75.8526C163.976 75.8526 164.204 75.6634 164.28 75.4363C164.317 75.3607 164.317 75.285 164.317 75.2093L164.355 73.62H164.81V75.5499Z" fill="#283042"/>
<path d="M172.391 72.8254L174.324 72.8633V73.2417L172.846 73.2038L172.808 74.3769L174.173 74.4147V74.7932L172.808 74.7553L172.77 76.3825H172.315L172.391 72.8254Z" fill="#283042"/>
<path d="M174.779 74.6796C174.779 74.3769 174.779 74.112 174.779 73.885H175.196V74.3769H175.234C175.348 74.0363 175.651 73.8093 175.954 73.8471C175.992 73.8471 176.03 73.8471 176.068 73.885V74.3391C176.03 74.3391 175.954 74.3391 175.916 74.3012C175.575 74.3012 175.348 74.5283 175.272 74.8688C175.272 74.9445 175.234 75.0202 175.234 75.0959L175.196 76.4581H174.741L174.779 74.6796Z" fill="#283042"/>
<path d="M177.092 73.2037C177.092 73.3551 176.978 73.5065 176.788 73.4686C176.637 73.4686 176.523 73.3172 176.523 73.1659C176.523 73.0145 176.637 72.8632 176.826 72.8632C176.978 72.9388 177.092 73.0524 177.092 73.2037ZM176.485 76.4959L176.523 73.9227H176.978L176.94 76.4959H176.485Z" fill="#283042"/>
<path d="M186.681 76.1553C186.871 76.2688 187.174 76.3823 187.515 76.4202C187.97 76.4202 188.273 76.1931 188.273 75.8147C188.273 75.4742 188.084 75.285 187.629 75.0958C187.06 74.8687 186.681 74.566 186.719 74.0741C186.719 73.5065 187.212 73.1281 187.894 73.1281C188.273 73.1281 188.539 73.2416 188.69 73.3173L188.539 73.6957C188.425 73.62 188.198 73.5065 187.856 73.5065C187.364 73.5065 187.174 73.7713 187.174 74.0362C187.174 74.3768 187.364 74.5282 187.856 74.7552C188.463 74.9822 188.766 75.285 188.728 75.8147C188.728 76.3823 188.311 76.8364 187.439 76.7986C187.098 76.7986 186.719 76.6851 186.53 76.5337L186.681 76.1553Z" fill="#283042"/>
<path d="M190.775 76.7986L190.737 76.4581C190.586 76.6473 190.32 76.8365 189.941 76.8365C189.411 76.8365 189.183 76.4581 189.183 76.0796C189.183 75.4742 189.752 75.1336 190.737 75.1715V75.1336C190.737 74.9066 190.699 74.5282 190.169 74.5282C189.941 74.5282 189.676 74.6039 189.486 74.7174L189.373 74.4147C189.6 74.2633 189.903 74.1876 190.207 74.1876C191.003 74.1876 191.154 74.7552 191.154 75.2472L191.116 76.1932C191.116 76.4202 191.116 76.6473 191.154 76.7986H190.775ZM190.737 75.4742C190.244 75.4364 189.638 75.512 189.638 76.0418C189.638 76.3445 189.827 76.4959 190.055 76.4959C190.396 76.4959 190.623 76.3067 190.699 76.0796C190.699 76.0418 190.737 75.9661 190.737 75.9283V75.4742Z" fill="#283042"/>
<path d="M192.519 73.5444V74.2634H193.201V74.604H192.519L192.481 76.0041C192.481 76.3068 192.557 76.496 192.822 76.496C192.936 76.496 193.049 76.496 193.087 76.4582V76.7987C193.012 76.8366 192.86 76.8744 192.67 76.8366C192.443 76.8366 192.291 76.7609 192.178 76.6474C192.064 76.496 191.988 76.269 192.026 75.9662L192.064 74.5661H191.647V74.2256H192.026V73.6201L192.519 73.5444Z" fill="#283042"/>
<path d="M94.3271 77.982L94.0894 88.8779L124.672 89.5431L124.91 78.6472L94.3271 77.982Z" fill="#F2F9F8"/>
<path d="M109.545 89.3995L93.9282 89.059L94.1556 77.8203L109.772 78.1609L109.545 89.3995ZM94.2694 88.7184L109.204 89.059L109.431 78.5014L94.4968 78.1609L94.2694 88.7184Z" fill="#D5EFEC"/>
<path d="M124.821 89.7402L109.204 89.3997L109.431 78.161L125.048 78.5016L124.821 89.7402ZM109.545 89.0591L124.48 89.3997L124.707 78.8421L109.772 78.5016L109.545 89.0591Z" fill="#D5EFEC"/>
<path d="M140.134 90.0807L124.518 89.7401L124.745 78.5015L140.362 78.842L140.134 90.0807ZM124.821 89.3995L139.755 89.7401L139.983 79.1826L125.048 78.842L124.821 89.3995Z" fill="#D5EFEC"/>
<path d="M155.41 90.3835L139.793 90.043L140.021 78.8043L155.637 79.1449L155.41 90.3835ZM140.134 89.7402L155.069 90.0808L155.296 79.5233L140.362 79.1827L140.134 89.7402Z" fill="#D5EFEC"/>
<path d="M170.686 90.724L155.069 90.3834L155.296 79.1448L170.913 79.4853L170.686 90.724ZM155.41 90.0428L170.344 90.3834L170.572 79.8259L155.637 79.4853L155.41 90.0428Z" fill="#D5EFEC"/>
<path d="M185.961 91.0646L170.344 90.724L170.572 79.4854L186.189 79.8259L185.961 91.0646ZM170.686 90.3834L185.62 90.724L185.848 80.1665L170.913 79.8259L170.686 90.3834Z" fill="#D5EFEC"/>
<path d="M201.275 91.4051L185.658 91.0646L185.886 79.8259L201.502 80.1665L201.275 91.4051ZM185.999 90.724L200.934 91.0646L201.161 80.5071L186.227 80.1665L185.999 90.724Z" fill="#D5EFEC"/>
<path d="M109.318 100.298L93.7009 99.9572L93.9284 88.7185L109.545 89.0591L109.318 100.298ZM94.0421 99.6166L108.977 99.9572L109.204 89.3996L94.2695 89.0591L94.0421 99.6166Z" fill="#D5EFEC"/>
<path d="M124.593 100.638L108.977 100.298L109.204 89.0591L124.821 89.3996L124.593 100.638ZM109.318 99.9572L124.252 100.298L124.48 89.7402L109.545 89.3996L109.318 99.9572Z" fill="#D5EFEC"/>
<path d="M139.869 100.941L124.252 100.6L124.48 89.3617L140.096 89.7023L139.869 100.941ZM124.593 100.298L139.528 100.638L139.755 90.0807L124.821 89.7401L124.593 100.298Z" fill="#D5EFEC"/>
<path d="M155.182 101.282L139.566 100.941L139.793 89.7024L155.41 90.043L155.182 101.282ZM139.869 100.6L154.803 100.941L155.031 90.3835L140.096 90.043L139.869 100.6Z" fill="#D5EFEC"/>
<path d="M170.458 101.622L154.842 101.281L155.069 90.0428L170.686 90.3834L170.458 101.622ZM155.183 100.941L170.117 101.281L170.345 90.724L155.41 90.3834L155.183 100.941Z" fill="#D5EFEC"/>
<path d="M185.734 101.963L170.117 101.622L170.345 90.3834L185.961 90.724L185.734 101.963ZM170.458 101.282L185.393 101.622L185.62 91.0646L170.686 90.724L170.458 101.282Z" fill="#D5EFEC"/>
<path d="M201.01 102.303L185.393 101.963L185.62 90.7241L201.237 91.0647L201.01 102.303ZM185.734 101.622L200.669 101.963L200.896 91.4053L185.961 91.0647L185.734 101.622Z" fill="#D5EFEC"/>
<path d="M109.052 111.196L93.4355 110.855L93.663 99.6166L109.28 99.9571L109.052 111.196ZM93.7767 110.515L108.711 110.855L108.939 100.298L94.0041 99.9571L93.7767 110.515Z" fill="#D5EFEC"/>
<path d="M124.366 111.536L108.749 111.196L108.976 99.9572L124.593 100.298L124.366 111.536ZM109.09 110.855L124.025 111.196L124.252 100.638L109.318 100.298L109.09 110.855Z" fill="#D5EFEC"/>
<path d="M139.641 111.839L124.025 111.499L124.252 100.26L139.869 100.6L139.641 111.839ZM124.366 111.158L139.3 111.499L139.528 100.941L124.593 100.6L124.366 111.158Z" fill="#D5EFEC"/>
<path d="M154.917 112.18L139.301 111.839L139.528 100.6L155.145 100.941L154.917 112.18ZM139.642 111.499L154.576 111.839L154.804 101.282L139.869 100.941L139.642 111.499Z" fill="#D5EFEC"/>
<path d="M170.231 112.52L154.614 112.18L154.841 100.941L170.458 101.282L170.231 112.52ZM154.917 111.839L169.852 112.18L170.079 101.622L155.145 101.282L154.917 111.839Z" fill="#D5EFEC"/>
<path d="M185.506 112.861L169.89 112.52L170.117 101.281L185.734 101.622L185.506 112.861ZM170.231 112.18L185.165 112.52L185.393 101.963L170.458 101.622L170.231 112.18Z" fill="#D5EFEC"/>
<path d="M200.782 113.163L185.165 112.823L185.393 101.584L201.01 101.925L200.782 113.163ZM185.506 112.52L200.441 112.861L200.668 102.303L185.734 101.963L185.506 112.52Z" fill="#D5EFEC"/>
<path d="M108.825 122.094L93.208 121.753L93.4354 110.515L109.052 110.855L108.825 122.094ZM93.5492 121.413L108.484 121.753L108.711 111.196L93.7766 110.855L93.5492 121.413Z" fill="#D5EFEC"/>
<path d="M124.101 122.397L108.484 122.056L108.711 110.817L124.328 111.158L124.101 122.397ZM108.825 121.753L123.76 122.094L123.987 111.536L109.052 111.196L108.825 121.753Z" fill="#D5EFEC"/>
<path d="M139.414 122.737L123.797 122.397L124.025 111.158L139.642 111.499L139.414 122.737ZM124.139 122.056L139.073 122.397L139.3 111.839L124.366 111.499L124.139 122.056Z" fill="#D5EFEC"/>
<path d="M154.69 123.078L139.073 122.737L139.3 111.499L154.917 111.839L154.69 123.078ZM139.414 122.397L154.349 122.737L154.576 112.18L139.642 111.839L139.414 122.397Z" fill="#D5EFEC"/>
<path d="M169.965 123.418L154.349 123.078L154.576 111.839L170.193 112.18L169.965 123.418ZM154.69 122.737L169.624 123.078L169.852 112.52L154.917 112.18L154.69 122.737Z" fill="#D5EFEC"/>
<path d="M185.279 123.759L169.662 123.418L169.89 112.18L185.507 112.52L185.279 123.759ZM169.966 123.078L184.9 123.418L185.128 112.861L170.193 112.52L169.966 123.078Z" fill="#D5EFEC"/>
<path d="M200.555 124.062L184.938 123.721L185.165 112.482L200.782 112.823L200.555 124.062ZM185.279 123.418L200.214 123.759L200.441 113.201L185.507 112.861L185.279 123.418Z" fill="#D5EFEC"/>
<path d="M108.37 143.852L92.7532 143.512L92.9806 132.273L108.597 132.614L108.37 143.852ZM93.0943 143.209L108.029 143.549L108.256 132.992L93.3217 132.651L93.0943 143.209Z" fill="#D5EFEC"/>
<path d="M123.646 144.193L108.029 143.852L108.256 132.614L123.873 132.954L123.646 144.193ZM108.37 143.512L123.304 143.852L123.532 133.295L108.597 132.954L108.37 143.512Z" fill="#D5EFEC"/>
<path d="M138.921 144.533L123.304 144.193L123.532 132.954L139.149 133.295L138.921 144.533ZM123.646 143.852L138.58 144.193L138.808 133.635L123.873 133.295L123.646 143.852Z" fill="#D5EFEC"/>
<path d="M149.648 144.42L138.959 144.193L139.187 133.635L154.121 133.976L153.894 143.966C154.008 143.928 154.121 143.928 154.235 143.89L154.462 133.597L138.846 133.257L138.618 144.495L147.109 144.685L149.648 144.42Z" fill="#D5EFEC"/>
<path d="M169.245 141.657C169.359 141.62 169.435 141.62 169.549 141.62L169.7 134.014L154.121 133.673L153.894 143.89C154.008 143.852 154.083 143.852 154.197 143.852L154.424 133.976L169.435 134.279L169.245 141.657Z" fill="#D5EFEC"/>
<path d="M184.521 138.592C184.635 138.555 184.71 138.517 184.824 138.517L184.9 134.316L169.321 133.976L169.169 141.695C169.283 141.657 169.359 141.657 169.473 141.62L169.624 134.279L184.597 134.619L184.521 138.592Z" fill="#D5EFEC"/>
<path d="M108.598 132.954L92.9807 132.614L93.2081 121.375L108.825 121.715L108.598 132.954ZM93.3219 132.311L108.256 132.651L108.484 122.094L93.5493 121.753L93.3219 132.311Z" fill="#D5EFEC"/>
<path d="M123.873 133.295L108.256 132.954L108.484 121.715L124.101 122.056L123.873 133.295ZM108.597 132.614L123.532 132.954L123.759 122.397L108.825 122.056L108.597 132.614Z" fill="#D5EFEC"/>
<path d="M139.149 133.635L123.532 133.295L123.759 122.056L139.376 122.397L139.149 133.635ZM123.873 132.954L138.808 133.295L139.035 122.737L124.101 122.397L123.873 132.954Z" fill="#D5EFEC"/>
<path d="M154.538 133.976L138.921 133.635L139.149 122.396L154.766 122.737L154.538 133.976ZM139.263 133.295L154.197 133.635L154.424 123.078L139.49 122.737L139.263 133.295Z" fill="#D5EFEC"/>
<path d="M169.738 134.316L154.121 133.976L154.349 122.737L169.966 123.078L169.738 134.316ZM154.462 133.635L169.397 133.976L169.624 123.418L154.69 123.078L154.462 133.635Z" fill="#D5EFEC"/>
<path d="M184.938 134.619L169.321 134.278L169.548 123.04L185.165 123.38L184.938 134.619ZM169.662 133.976L184.597 134.278L184.824 123.721L169.89 123.38L169.662 133.976Z" fill="#D5EFEC"/>
<path d="M184.938 123.418L184.71 134.619L195.93 134.846C196.082 134.733 196.271 134.619 196.461 134.543L184.976 134.278L185.203 123.683L200.176 124.024L199.986 131.97C200.062 131.857 200.176 131.743 200.289 131.63L200.479 123.721L184.938 123.418Z" fill="#D5EFEC"/>
<path d="M127.777 80.6206L127.322 80.8476L127.247 80.5828L127.815 80.3179H128.118L128.081 82.8153H127.739L127.777 80.6206Z" fill="#283042"/>
<path d="M142.105 83.1181V82.891L142.371 82.6262C143.015 82.0207 143.318 81.718 143.318 81.3396C143.318 81.0747 143.204 80.8477 142.825 80.8477C142.598 80.8477 142.408 80.9612 142.295 81.0369L142.181 80.8098C142.371 80.6585 142.598 80.5449 142.901 80.5828C143.432 80.5828 143.659 80.9612 143.659 81.3396C143.659 81.7937 143.318 82.1721 142.75 82.664L142.56 82.8532L143.697 82.891V83.1559L142.105 83.1181Z" fill="#283042"/>
<path d="M157.305 83.0424C157.419 83.1181 157.608 83.1938 157.874 83.2316C158.329 83.2316 158.442 82.9667 158.442 82.7397C158.442 82.3991 158.139 82.2478 157.798 82.2099H157.608V81.945H157.798C158.063 81.945 158.366 81.8315 158.366 81.5288C158.366 81.3396 158.253 81.1504 157.95 81.1504C157.76 81.1504 157.57 81.2261 157.457 81.3017L157.381 81.0369C157.533 80.9612 157.76 80.8477 158.025 80.8477C158.518 80.8477 158.745 81.1504 158.745 81.4531C158.745 81.718 158.594 81.945 158.253 82.0207C158.556 82.0964 158.821 82.3234 158.783 82.664C158.783 83.0803 158.442 83.4208 157.836 83.383C157.57 83.383 157.305 83.2695 157.191 83.1938L157.305 83.0424Z" fill="#283042"/>
<path d="M174.211 83.7992V83.1181L173.036 83.0803V82.8532L174.211 81.2639H174.59L174.552 82.8154H174.893V83.0803H174.552V83.7614L174.211 83.7992ZM174.249 82.8532V82.0207C174.249 81.9072 174.249 81.7558 174.286 81.6423C174.211 81.7937 174.135 81.9072 174.059 82.0207L173.415 82.8532H174.249Z" fill="#283042"/>
<path d="M189.828 81.9451L188.88 81.9072L188.766 82.5505C188.842 82.5505 188.88 82.5505 188.956 82.5505C189.145 82.5505 189.335 82.5883 189.486 82.7019C189.676 82.8154 189.828 83.0424 189.828 83.3452C189.828 83.8371 189.411 84.1777 188.88 84.1777C188.615 84.1777 188.387 84.102 188.273 84.0263L188.349 83.7614C188.463 83.8371 188.652 83.9128 188.88 83.9128C189.221 83.9128 189.486 83.7236 189.486 83.383C189.486 83.0424 189.259 82.8154 188.766 82.8154C188.615 82.8154 188.501 82.8154 188.425 82.8532L188.615 81.6423L189.828 81.6802V81.9451Z" fill="#283042"/>
<path d="M97.1881 90.9889L96.7333 91.2159L96.6575 90.951L97.226 90.6862H97.5293L97.4914 93.1836H97.1502L97.1881 90.9889Z" fill="#283042"/>
<path d="M111.516 93.4864V93.2593L111.781 92.9944C112.426 92.389 112.729 92.0863 112.729 91.7079C112.729 91.443 112.615 91.2159 112.236 91.2159C112.009 91.2159 111.819 91.3295 111.706 91.4051L111.592 91.1781C111.781 91.0267 112.009 90.9132 112.312 90.9511C112.843 90.9511 113.07 91.3295 113.07 91.7079C113.07 92.162 112.729 92.5404 112.16 93.0323L111.971 93.2215L113.108 93.2593V93.5242L111.516 93.4864Z" fill="#283042"/>
<path d="M126.716 93.4486C126.83 93.5242 127.019 93.5999 127.285 93.5999C127.739 93.5999 127.853 93.335 127.853 93.108C127.853 92.7674 127.55 92.6161 127.209 92.5782H127.019V92.3133H127.209C127.474 92.3133 127.777 92.1998 127.777 91.8971C127.777 91.7079 127.664 91.5187 127.36 91.5187C127.171 91.5187 126.981 91.5943 126.868 91.67L126.792 91.4051C126.943 91.2916 127.171 91.2159 127.436 91.2159C127.929 91.2159 128.156 91.5187 128.156 91.8214C128.156 92.0863 128.005 92.3133 127.664 92.389C127.967 92.4647 128.232 92.6917 128.194 93.0323C128.194 93.4485 127.853 93.7891 127.247 93.7513C126.981 93.7513 126.716 93.6378 126.602 93.5621L126.716 93.4486Z" fill="#283042"/>
<path d="M142.788 94.1675V93.4864L141.613 93.4486V93.2215L142.788 91.6322H143.167L143.129 93.1837H143.47V93.4486H143.129V94.1297L142.788 94.1675ZM142.826 93.2215V92.389C142.826 92.2377 142.826 92.1241 142.864 92.0106C142.788 92.162 142.712 92.2755 142.636 92.389L141.992 93.2215H142.826Z" fill="#283042"/>
<path d="M158.404 92.3133L157.457 92.2755L157.343 92.9188C157.419 92.9188 157.457 92.9188 157.533 92.9188C157.722 92.9188 157.912 92.9566 158.063 93.0702C158.253 93.1837 158.404 93.4107 158.404 93.7134C158.404 94.2054 157.987 94.5459 157.457 94.5459C157.191 94.5459 156.964 94.4703 156.85 94.3946L156.926 94.1297C157.04 94.2054 157.229 94.2811 157.457 94.2811C157.76 94.2811 158.063 94.0918 158.063 93.7513C158.063 93.4107 157.836 93.1837 157.343 93.1837C157.191 93.1837 157.078 93.1837 157.002 93.1837L157.191 91.9728L158.404 92.0106V92.3133Z" fill="#283042"/>
<path d="M174.287 92.5782C174.211 92.5782 174.135 92.5782 174.021 92.5782C173.491 92.6539 173.188 93.0323 173.112 93.4486C173.225 93.2972 173.453 93.1837 173.718 93.1837C174.173 93.1837 174.476 93.5243 174.476 94.0162C174.476 94.4703 174.135 94.8865 173.604 94.8865C173.074 94.8865 172.733 94.4324 172.733 93.7891C172.733 93.2972 172.922 92.9188 173.188 92.6539C173.415 92.4647 173.68 92.3134 173.984 92.3134C174.097 92.3134 174.173 92.3134 174.249 92.3134L174.287 92.5782ZM174.173 94.054C174.173 93.7135 173.984 93.4864 173.68 93.4486C173.491 93.4486 173.301 93.5621 173.188 93.7513C173.15 93.7891 173.15 93.827 173.15 93.9027C173.15 94.3189 173.339 94.6216 173.68 94.6216C173.946 94.6595 174.135 94.3946 174.173 94.054Z" fill="#283042"/>
<path d="M189.6 92.6918V92.9188L188.463 95.1892H188.122L189.259 92.9945L188.046 92.9567V92.6918H189.6Z" fill="#283042"/>
<path d="M96.1267 103.855C96.1267 103.552 96.3162 103.325 96.6574 103.211C96.392 103.06 96.2783 102.871 96.2783 102.644C96.2783 102.228 96.6195 102 97.0743 102C97.5671 102 97.7945 102.303 97.7945 102.644C97.7945 102.871 97.6808 103.098 97.3776 103.211C97.6808 103.325 97.8703 103.552 97.8703 103.855C97.8703 104.309 97.4913 104.574 96.9985 104.574C96.4299 104.536 96.1267 104.233 96.1267 103.855ZM97.4913 103.855C97.4913 103.552 97.3018 103.401 96.9606 103.287C96.6574 103.363 96.5058 103.552 96.5058 103.779C96.5058 104.044 96.6953 104.271 96.9985 104.271C97.2639 104.309 97.4534 104.12 97.4913 103.855ZM96.5816 102.606C96.5816 102.871 96.7711 102.984 97.0364 103.098C97.2639 103.022 97.4155 102.871 97.4155 102.644C97.4155 102.455 97.3018 102.228 96.9985 102.228C96.7332 102.19 96.5816 102.379 96.5816 102.606Z" fill="#283042"/>
<path d="M111.478 104.574C111.554 104.574 111.63 104.574 111.743 104.574C111.933 104.536 112.122 104.46 112.274 104.347C112.426 104.195 112.577 103.968 112.615 103.665C112.464 103.817 112.274 103.93 112.009 103.93C111.554 103.93 111.289 103.59 111.289 103.136C111.289 102.644 111.668 102.265 112.16 102.265C112.691 102.265 112.994 102.719 112.956 103.325C112.956 103.893 112.767 104.271 112.502 104.498C112.312 104.687 112.047 104.801 111.781 104.801C111.668 104.801 111.554 104.801 111.478 104.801V104.574ZM111.63 103.136C111.63 103.438 111.819 103.665 112.085 103.665C112.312 103.665 112.502 103.552 112.577 103.401C112.615 103.363 112.615 103.325 112.615 103.287C112.615 102.871 112.464 102.53 112.122 102.53C111.819 102.53 111.63 102.795 111.63 103.136Z" fill="#283042"/>
<path d="M127.171 102.984L126.716 103.211L126.64 102.947L127.209 102.682H127.512L127.474 105.179H127.133L127.171 102.984Z" fill="#283042"/>
<path d="M130.052 103.93C130.052 104.801 129.71 105.255 129.142 105.255C128.649 105.255 128.308 104.763 128.346 103.93C128.346 103.098 128.725 102.644 129.256 102.644C129.786 102.682 130.09 103.136 130.052 103.93ZM128.687 103.968C128.687 104.612 128.877 104.99 129.18 104.99C129.521 104.99 129.71 104.612 129.71 103.968C129.71 103.363 129.559 102.947 129.218 102.947C128.952 102.909 128.725 103.249 128.687 103.968Z" fill="#283042"/>
<path d="M141.802 103.287L141.347 103.514L141.271 103.249L141.84 102.984H142.143L142.105 105.482H141.764L141.802 103.287Z" fill="#283042"/>
<path d="M143.811 103.325L143.356 103.552L143.281 103.287L143.849 103.022H144.152L144.114 105.52H143.773L143.811 103.325Z" fill="#283042"/>
<path d="M157.267 103.628L156.812 103.855L156.737 103.59L157.305 103.325H157.608L157.57 105.822H157.229L157.267 103.628Z" fill="#283042"/>
<path d="M158.48 105.86V105.633L158.746 105.368C159.39 104.763 159.693 104.46 159.693 104.082C159.693 103.817 159.579 103.59 159.2 103.59C158.973 103.59 158.783 103.703 158.67 103.779L158.556 103.552C158.746 103.401 158.973 103.325 159.276 103.325C159.807 103.325 160.034 103.703 160.034 104.082C160.034 104.536 159.693 104.914 159.125 105.406L158.935 105.595L160.072 105.633V105.898L158.48 105.86Z" fill="#283042"/>
<path d="M172.733 103.968L172.278 104.195L172.202 103.93L172.77 103.666H173.074L173.036 106.163H172.695L172.733 103.968Z" fill="#283042"/>
<path d="M174.021 105.784C174.135 105.86 174.324 105.936 174.59 105.936C175.045 105.936 175.158 105.671 175.158 105.444C175.158 105.103 174.855 104.952 174.514 104.914H174.324V104.649H174.514C174.779 104.649 175.083 104.536 175.083 104.233C175.083 104.044 174.969 103.855 174.666 103.855C174.476 103.855 174.287 103.93 174.173 104.006L174.097 103.741C174.249 103.665 174.476 103.552 174.741 103.552C175.234 103.552 175.462 103.855 175.462 104.157C175.462 104.422 175.31 104.649 174.969 104.725C175.272 104.801 175.537 105.028 175.499 105.368C175.499 105.784 175.158 106.125 174.552 106.087C174.249 106.087 174.021 105.974 173.907 105.898L174.021 105.784Z" fill="#283042"/>
<path d="M188.198 104.309L187.743 104.536L187.667 104.271L188.236 104.006H188.539L188.501 106.504H188.16L188.198 104.309Z" fill="#283042"/>
<path d="M190.434 106.541V105.86L189.259 105.822V105.595L190.434 104.006H190.813L190.775 105.558H191.116V105.822H190.775V106.504L190.434 106.541ZM190.472 105.595V104.763C190.472 104.649 190.472 104.498 190.51 104.385C190.434 104.536 190.358 104.649 190.282 104.763L189.638 105.595H190.472Z" fill="#283042"/>
<path d="M96.392 113.201L95.9371 113.428L95.8613 113.163L96.4299 112.899H96.7331L96.6952 115.396H96.3541L96.392 113.201Z" fill="#283042"/>
<path d="M99.1212 113.239L98.1736 113.201L98.0599 113.845C98.1357 113.845 98.1736 113.845 98.2494 113.845C98.439 113.845 98.6285 113.882 98.7801 113.996C98.9696 114.109 99.1212 114.337 99.1212 114.639C99.1212 115.131 98.7043 115.472 98.1736 115.472C97.9083 115.472 97.6809 115.396 97.5671 115.32L97.643 115.055C97.7567 115.131 97.9462 115.207 98.1736 115.207C98.4769 115.207 98.7801 115.018 98.7801 114.677C98.7801 114.336 98.5906 114.109 98.0599 114.109C97.9083 114.109 97.7946 114.109 97.7188 114.147L97.9083 112.936L99.1212 112.974V113.239Z" fill="#283042"/>
<path d="M111.023 113.542L110.568 113.769L110.493 113.504L111.061 113.239H111.364L111.327 115.737H110.985L111.023 113.542Z" fill="#283042"/>
<path d="M113.714 113.504C113.639 113.504 113.563 113.504 113.449 113.504C112.918 113.58 112.615 113.958 112.539 114.374C112.653 114.223 112.881 114.109 113.146 114.109C113.601 114.109 113.904 114.45 113.904 114.942C113.904 115.396 113.563 115.812 113.032 115.812C112.502 115.812 112.16 115.358 112.16 114.715C112.16 114.223 112.35 113.845 112.615 113.58C112.843 113.391 113.108 113.239 113.411 113.239C113.525 113.239 113.601 113.239 113.677 113.239L113.714 113.504ZM113.601 114.98C113.601 114.639 113.411 114.412 113.108 114.412C112.918 114.412 112.729 114.526 112.615 114.715C112.577 114.753 112.577 114.791 112.577 114.866C112.577 115.283 112.767 115.585 113.108 115.585C113.373 115.547 113.601 115.32 113.601 114.98Z" fill="#283042"/>
<path d="M126.488 113.882L126.034 114.109L125.958 113.845L126.526 113.58H126.83L126.792 116.077H126.451L126.488 113.882Z" fill="#283042"/>
<path d="M129.369 113.618V113.845L128.232 116.115H127.891L129.028 113.92L127.815 113.882V113.618H129.369Z" fill="#283042"/>
<path d="M141.158 114.185L140.703 114.412L140.627 114.147L141.196 113.882H141.499L141.461 116.38H141.12L141.158 114.185Z" fill="#283042"/>
<path d="M142.333 115.774C142.333 115.472 142.522 115.245 142.863 115.093C142.598 114.942 142.484 114.753 142.484 114.526C142.484 114.147 142.826 113.882 143.28 113.882C143.773 113.882 144.001 114.185 144.001 114.526C144.001 114.753 143.887 114.98 143.584 115.093C143.887 115.207 144.076 115.434 144.076 115.737C144.076 116.191 143.697 116.456 143.205 116.456C142.636 116.456 142.333 116.153 142.333 115.774ZM143.659 115.774C143.659 115.472 143.47 115.32 143.129 115.207C142.826 115.283 142.674 115.472 142.674 115.699C142.674 115.964 142.863 116.191 143.167 116.191C143.47 116.229 143.659 116.039 143.659 115.774ZM142.75 114.526C142.75 114.791 142.939 114.904 143.205 115.018C143.432 114.942 143.584 114.791 143.584 114.564C143.584 114.374 143.47 114.147 143.167 114.147C142.939 114.109 142.788 114.299 142.75 114.526Z" fill="#283042"/>
<path d="M156.623 114.526L156.168 114.753L156.092 114.488L156.661 114.223H156.964L156.926 116.72H156.585L156.623 114.526Z" fill="#283042"/>
<path d="M157.987 116.493C158.063 116.493 158.139 116.493 158.253 116.493C158.442 116.456 158.632 116.38 158.783 116.266C158.935 116.115 159.087 115.888 159.125 115.623C158.973 115.774 158.783 115.888 158.518 115.888C158.063 115.888 157.798 115.547 157.798 115.093C157.798 114.601 158.177 114.223 158.67 114.223C159.2 114.223 159.504 114.639 159.466 115.283C159.466 115.85 159.276 116.229 159.011 116.456C158.821 116.645 158.556 116.758 158.291 116.758C158.177 116.758 158.063 116.758 157.987 116.758V116.493ZM158.177 115.056C158.177 115.358 158.366 115.585 158.632 115.585C158.859 115.585 159.049 115.472 159.125 115.32C159.125 115.283 159.162 115.245 159.162 115.207C159.162 114.791 159.011 114.45 158.67 114.45C158.366 114.45 158.177 114.715 158.177 115.056Z" fill="#283042"/>
<path d="M171.292 117.023V116.796L171.557 116.531C172.202 115.926 172.505 115.623 172.505 115.245C172.505 114.98 172.391 114.753 172.012 114.753C171.785 114.753 171.595 114.866 171.482 114.942L171.368 114.715C171.557 114.564 171.785 114.488 172.088 114.488C172.619 114.488 172.846 114.866 172.846 115.245C172.846 115.699 172.505 116.077 171.936 116.569L171.747 116.758L172.884 116.796V117.099L171.292 117.023Z" fill="#283042"/>
<path d="M174.969 115.85C174.969 116.721 174.628 117.175 174.059 117.175C173.566 117.175 173.225 116.683 173.263 115.85C173.263 115.018 173.642 114.564 174.173 114.564C174.703 114.564 174.969 115.056 174.969 115.85ZM173.604 115.85C173.604 116.493 173.794 116.872 174.097 116.872C174.438 116.872 174.628 116.493 174.628 115.85C174.628 115.245 174.476 114.828 174.135 114.828C173.832 114.791 173.604 115.169 173.604 115.85Z" fill="#283042"/>
<path d="M186.757 117.364V117.137L187.023 116.872C187.667 116.266 187.97 115.964 187.97 115.585C187.97 115.32 187.857 115.093 187.478 115.093C187.25 115.093 187.061 115.207 186.947 115.283L186.833 115.056C187.023 114.904 187.25 114.791 187.553 114.829C188.084 114.829 188.311 115.207 188.311 115.585C188.311 116.039 187.97 116.418 187.402 116.91L187.212 117.099L188.349 117.137V117.402L186.757 117.364Z" fill="#283042"/>
<path d="M189.524 115.245L189.069 115.472L188.994 115.207L189.562 114.942H189.865L189.828 117.439H189.486L189.524 115.245Z" fill="#283042"/>
<path d="M95.3687 126.294V126.105L95.634 125.84C96.2784 125.235 96.5816 124.932 96.5816 124.553C96.5816 124.289 96.4679 124.062 96.0888 124.062C95.8614 124.062 95.6719 124.175 95.5582 124.251L95.4445 124.024C95.634 123.872 95.8614 123.797 96.1646 123.797C96.6953 123.797 96.9227 124.175 96.9227 124.553C96.9227 125.008 96.5816 125.386 96.013 125.878L95.8235 126.067L96.9606 126.105V126.37L95.3687 126.294Z" fill="#283042"/>
<path d="M97.3396 126.332V126.105L97.6049 125.84C98.2493 125.235 98.5526 124.932 98.5526 124.553C98.5526 124.289 98.4388 124.062 98.0598 124.062C97.8324 124.062 97.6428 124.175 97.5291 124.251L97.4154 124.024C97.6049 123.872 97.8324 123.797 98.1356 123.797C98.6663 123.797 98.8937 124.175 98.8937 124.553C98.8937 125.008 98.5526 125.386 97.984 125.878L97.7945 126.067L98.9316 126.105V126.37L97.3396 126.332Z" fill="#283042"/>
<path d="M110 126.635V126.408L110.265 126.143C110.91 125.537 111.213 125.235 111.213 124.856C111.213 124.591 111.099 124.364 110.72 124.364C110.493 124.364 110.303 124.478 110.19 124.553L110.076 124.326C110.265 124.175 110.493 124.099 110.796 124.099C111.327 124.099 111.554 124.478 111.554 124.856C111.554 125.31 111.213 125.689 110.644 126.181L110.455 126.37L111.592 126.408V126.673L110 126.635Z" fill="#283042"/>
<path d="M112.085 126.294C112.198 126.37 112.388 126.445 112.653 126.483C113.108 126.483 113.222 126.218 113.222 125.991C113.222 125.651 112.919 125.499 112.577 125.462H112.388V125.197H112.577C112.843 125.197 113.146 125.083 113.146 124.78C113.146 124.591 113.032 124.402 112.729 124.402C112.54 124.402 112.35 124.478 112.236 124.553L112.16 124.289C112.312 124.213 112.54 124.099 112.805 124.099C113.298 124.099 113.525 124.402 113.525 124.705C113.525 124.97 113.373 125.197 113.032 125.272C113.336 125.348 113.601 125.575 113.563 125.916C113.563 126.332 113.222 126.673 112.615 126.635C112.35 126.635 112.085 126.521 111.971 126.445L112.085 126.294Z" fill="#283042"/>
<path d="M125.465 126.975V126.748L125.73 126.483C126.375 125.878 126.678 125.575 126.678 125.197C126.678 124.932 126.564 124.705 126.185 124.705C125.958 124.705 125.768 124.818 125.655 124.894L125.541 124.667C125.73 124.516 125.958 124.44 126.261 124.44C126.792 124.44 127.019 124.818 127.019 125.197C127.019 125.651 126.678 126.029 126.109 126.521L125.92 126.71L127.057 126.748V127.013L125.465 126.975Z" fill="#283042"/>
<path d="M128.497 127.013V126.332H127.36V126.105L128.535 124.516H128.914L128.877 126.067H129.218V126.332H128.877V127.013H128.497ZM128.535 126.067V125.235C128.535 125.083 128.535 124.97 128.573 124.856C128.498 125.008 128.422 125.121 128.346 125.235L127.701 126.067H128.535Z" fill="#283042"/>
<path d="M140.096 127.278V127.051L140.362 126.786C141.006 126.181 141.309 125.878 141.309 125.499C141.309 125.235 141.196 125.008 140.817 125.008C140.589 125.008 140.4 125.121 140.286 125.197L140.172 124.97C140.362 124.818 140.589 124.743 140.892 124.743C141.423 124.743 141.651 125.121 141.651 125.499C141.651 125.954 141.309 126.332 140.741 126.824L140.551 127.013L141.688 127.051V127.316L140.096 127.278Z" fill="#283042"/>
<path d="M143.66 125.121L142.712 125.083L142.598 125.727C142.674 125.727 142.712 125.727 142.788 125.727C142.977 125.727 143.167 125.764 143.318 125.878C143.508 125.991 143.66 126.218 143.66 126.521C143.66 127.013 143.243 127.354 142.712 127.354C142.447 127.354 142.219 127.278 142.105 127.202L142.181 126.937C142.295 127.013 142.485 127.089 142.712 127.089C143.015 127.089 143.318 126.9 143.318 126.559C143.318 126.218 143.091 125.991 142.598 125.991C142.447 125.991 142.333 125.991 142.257 126.029L142.447 124.818L143.66 124.856V125.121Z" fill="#283042"/>
<path d="M155.562 127.618V127.391L155.827 127.127C156.471 126.521 156.774 126.218 156.774 125.84C156.774 125.575 156.661 125.348 156.282 125.348C156.054 125.348 155.865 125.462 155.751 125.537L155.637 125.31C155.827 125.159 156.054 125.083 156.358 125.083C156.888 125.083 157.116 125.462 157.116 125.84C157.116 126.294 156.774 126.672 156.206 127.164L156.016 127.354L157.154 127.391V127.656L155.562 127.618Z" fill="#283042"/>
<path d="M159.049 125.424C158.973 125.424 158.897 125.424 158.784 125.424C158.253 125.499 157.95 125.878 157.874 126.294C157.988 126.143 158.215 126.029 158.48 126.029C158.935 126.029 159.238 126.37 159.238 126.862C159.238 127.316 158.897 127.732 158.367 127.732C157.836 127.732 157.495 127.278 157.495 126.635C157.495 126.143 157.684 125.764 157.95 125.499C158.177 125.31 158.442 125.159 158.746 125.159C158.859 125.159 158.935 125.159 159.011 125.159L159.049 125.424ZM158.935 126.862C158.935 126.483 158.746 126.294 158.442 126.256C158.253 126.256 158.026 126.37 157.95 126.559C157.912 126.597 157.912 126.635 157.912 126.71C157.912 127.127 158.101 127.429 158.442 127.429C158.708 127.467 158.897 127.24 158.935 126.862Z" fill="#283042"/>
<path d="M171.027 127.959V127.732L171.292 127.467C171.937 126.862 172.24 126.559 172.24 126.181C172.24 125.916 172.126 125.689 171.747 125.689C171.52 125.689 171.33 125.802 171.216 125.878L171.103 125.651C171.292 125.5 171.52 125.424 171.823 125.424C172.354 125.424 172.581 125.802 172.581 126.181C172.581 126.635 172.24 127.013 171.671 127.505L171.482 127.694L172.619 127.732V127.997L171.027 127.959Z" fill="#283042"/>
<path d="M174.704 125.5V125.727L173.566 127.997H173.225L174.362 125.802L173.149 125.764V125.5H174.704Z" fill="#283042"/>
<path d="M186.492 128.3V128.073L186.757 127.808C187.402 127.202 187.705 126.9 187.705 126.521C187.705 126.256 187.591 126.029 187.212 126.029C186.985 126.029 186.795 126.143 186.681 126.218L186.568 125.991C186.757 125.84 186.985 125.764 187.288 125.764C187.819 125.764 188.046 126.143 188.046 126.521C188.046 126.975 187.705 127.354 187.136 127.846L186.947 128.035L188.084 128.073V128.338L186.492 128.3Z" fill="#283042"/>
<path d="M188.463 127.694C188.463 127.391 188.653 127.164 188.994 127.051C188.728 126.899 188.615 126.71 188.615 126.483C188.615 126.067 188.956 125.84 189.411 125.84C189.904 125.84 190.131 126.143 190.131 126.483C190.131 126.71 190.017 126.937 189.714 127.051C190.017 127.164 190.207 127.391 190.207 127.694C190.207 128.148 189.828 128.413 189.335 128.413C188.766 128.375 188.463 128.073 188.463 127.694ZM189.828 127.694C189.828 127.391 189.638 127.24 189.297 127.127C188.994 127.202 188.842 127.391 188.842 127.618C188.842 127.883 189.032 128.11 189.335 128.11C189.638 128.148 189.828 127.959 189.828 127.694ZM188.918 126.445C188.918 126.71 189.108 126.824 189.373 126.937C189.6 126.862 189.752 126.71 189.752 126.483C189.752 126.294 189.638 126.067 189.335 126.067C189.07 126.029 188.918 126.218 188.918 126.445Z" fill="#283042"/>
<path d="M95.1411 136.814V136.587L95.4064 136.322C96.0508 135.716 96.3541 135.414 96.3541 135.035C96.3541 134.77 96.2404 134.543 95.8613 134.543C95.6339 134.543 95.4444 134.657 95.3306 134.733L95.2169 134.505C95.4064 134.354 95.6339 134.241 95.9371 134.278C96.4678 134.278 96.6952 134.657 96.6952 135.035C96.6952 135.489 96.3541 135.868 95.7855 136.36L95.596 136.549L96.7331 136.587V136.852L95.1411 136.814Z" fill="#283042"/>
<path d="M97.3397 136.625C97.4155 136.625 97.4913 136.625 97.605 136.625C97.7945 136.587 97.9841 136.511 98.1357 136.398C98.2873 136.246 98.4389 136.019 98.4768 135.754C98.3252 135.906 98.1357 136.019 97.8703 136.019C97.4155 136.019 97.1501 135.679 97.1501 135.224C97.1501 134.733 97.5292 134.354 98.022 134.354C98.5526 134.354 98.8559 134.808 98.818 135.414C98.818 135.981 98.6284 136.36 98.3631 136.587C98.1736 136.776 97.9082 136.889 97.6429 136.889C97.5292 136.889 97.4155 136.889 97.3397 136.889V136.625ZM97.4913 135.187C97.4913 135.489 97.6808 135.716 97.9461 135.716C98.1736 135.716 98.3631 135.603 98.4389 135.452C98.4768 135.414 98.4768 135.376 98.4768 135.338C98.4768 134.922 98.3252 134.581 97.9841 134.581C97.6808 134.581 97.4913 134.808 97.4913 135.187Z" fill="#283042"/>
<path d="M109.886 136.738C110 136.814 110.189 136.889 110.455 136.927C110.91 136.927 111.023 136.662 111.023 136.435C111.023 136.095 110.72 135.943 110.379 135.906H110.189V135.641H110.379C110.644 135.641 110.948 135.527 110.948 135.224C110.948 135.035 110.834 134.846 110.531 134.846C110.341 134.846 110.152 134.922 110.038 134.997L109.962 134.733C110.114 134.619 110.341 134.543 110.606 134.543C111.099 134.543 111.327 134.846 111.327 135.149C111.327 135.414 111.175 135.641 110.834 135.716C111.137 135.792 111.402 136.019 111.364 136.36C111.364 136.776 111.023 137.116 110.417 137.079C110.152 137.079 109.886 136.965 109.772 136.889L109.886 136.738Z" fill="#283042"/>
<path d="M113.449 135.943C113.449 136.814 113.108 137.268 112.539 137.268C112.047 137.268 111.743 136.776 111.743 135.943C111.743 135.111 112.122 134.657 112.653 134.657C113.184 134.657 113.487 135.111 113.449 135.943ZM112.085 135.943C112.085 136.587 112.274 136.965 112.577 136.965C112.918 136.965 113.108 136.587 113.108 135.943C113.108 135.338 112.956 134.922 112.615 134.922C112.35 134.884 112.122 135.262 112.085 135.943Z" fill="#283042"/>
<path d="M125.351 137.079C125.465 137.154 125.655 137.23 125.92 137.268C126.375 137.268 126.488 137.003 126.488 136.776C126.488 136.435 126.185 136.284 125.844 136.246H125.655V135.981H125.844C126.109 135.981 126.413 135.868 126.413 135.565C126.413 135.376 126.299 135.187 125.996 135.187C125.806 135.187 125.617 135.262 125.503 135.338L125.427 135.073C125.579 134.96 125.806 134.884 126.071 134.884C126.564 134.884 126.792 135.187 126.792 135.489C126.792 135.754 126.64 135.981 126.299 136.057C126.602 136.133 126.867 136.36 126.83 136.7C126.83 137.116 126.488 137.457 125.882 137.419C125.617 137.419 125.351 137.306 125.238 137.23L125.351 137.079Z" fill="#283042"/>
<path d="M128.005 135.338L127.55 135.565L127.474 135.3L128.043 135.035H128.346L128.308 137.533H127.967L128.005 135.338Z" fill="#283042"/>
<path d="M140.551 135.603L140.096 135.83L140.021 135.565L140.589 135.3H140.892L140.854 137.798H140.513L140.551 135.603Z" fill="#283042"/>
<path d="M155.713 138.138V137.911L155.978 137.646C156.623 137.041 156.926 136.738 156.926 136.36C156.926 136.095 156.812 135.868 156.433 135.868C156.206 135.868 156.016 135.981 155.903 136.057L155.789 135.83C155.978 135.679 156.206 135.603 156.509 135.603C157.04 135.603 157.267 135.981 157.267 136.36C157.267 136.814 156.926 137.192 156.358 137.684L156.168 137.873L157.305 137.911V138.176L155.713 138.138Z" fill="#283042"/>
<path d="M170.913 138.063C171.027 138.138 171.216 138.214 171.482 138.252C171.936 138.252 172.05 137.987 172.05 137.76C172.05 137.419 171.747 137.268 171.406 137.23H171.216V136.965H171.406C171.671 136.965 171.974 136.852 171.974 136.549C171.974 136.36 171.861 136.171 171.557 136.171C171.368 136.171 171.178 136.246 171.065 136.322L170.989 136.057C171.14 135.981 171.368 135.868 171.633 135.868C172.126 135.868 172.353 136.171 172.353 136.473C172.353 136.738 172.202 136.965 171.861 137.041C172.164 137.117 172.429 137.344 172.391 137.684C172.391 138.1 172.05 138.441 171.444 138.403C171.178 138.403 170.913 138.29 170.799 138.214L170.913 138.063Z" fill="#283042"/>
<path d="M187.061 137.987C187.174 137.949 187.288 137.911 187.402 137.873L187.44 136.322H187.061L185.885 137.911V138.138H186.454C186.682 138.063 186.871 137.987 187.061 137.987ZM186.265 137.836L186.909 137.003C186.985 136.89 187.061 136.776 187.136 136.625C187.136 136.738 187.136 136.89 187.098 137.003V137.836H186.265Z" fill="#283042"/>
<path d="M96.6196 82.1342V81.9072L96.885 81.6423C97.5294 81.0368 97.8326 80.7341 97.8326 80.3557C97.8326 80.0908 97.7189 79.8638 97.3398 79.8638C97.1124 79.8638 96.9229 79.9773 96.8092 80.053L96.6954 79.8259C96.885 79.6746 97.1124 79.561 97.4156 79.5989C97.9463 79.5989 98.1737 79.9773 98.1737 80.3557C98.1737 80.8098 97.8326 81.1882 97.264 81.6801L97.0745 81.8693L98.2117 81.9072V82.172L96.6196 82.1342Z" fill="#8C9DB5"/>
<path d="M98.8182 81.945C98.894 81.945 98.9698 81.945 99.0835 81.945C99.273 81.9071 99.4626 81.8315 99.6142 81.7179C99.7658 81.5666 99.9174 81.3395 99.9553 81.0747C99.8037 81.226 99.6142 81.3395 99.3489 81.3395C98.894 81.3395 98.6287 80.999 98.6287 80.5449C98.6287 80.053 99.0077 79.6746 99.5005 79.6746C100.031 79.6746 100.334 80.1286 100.296 80.7341C100.296 81.3017 100.107 81.6801 99.8416 81.9071C99.6521 82.0963 99.3868 82.2099 99.1214 82.2099C99.0077 82.2099 98.894 82.2477 98.8182 82.2099V81.945ZM98.9698 80.507C98.9698 80.8098 99.1593 81.0368 99.4247 81.0368C99.6521 81.0368 99.8416 80.9233 99.9174 80.7719C99.9553 80.7341 99.9553 80.6963 99.9553 80.6584C99.9553 80.2422 99.8037 79.9016 99.4626 79.9016C99.1972 79.9016 98.9698 80.1286 98.9698 80.507Z" fill="#8C9DB5"/>
<path d="M111.365 82.0585C111.478 82.1342 111.668 82.2099 111.933 82.2477C112.388 82.2477 112.502 81.9828 112.502 81.7558C112.502 81.4152 112.199 81.226 111.857 81.226H111.668V80.9612H111.857C112.123 80.9612 112.426 80.8476 112.426 80.5449C112.426 80.3557 112.312 80.1665 112.009 80.1665C111.82 80.1665 111.63 80.2422 111.516 80.3179L111.441 80.053C111.592 79.9395 111.82 79.8638 112.085 79.8638C112.578 79.8638 112.805 80.1665 112.805 80.4692C112.805 80.7341 112.653 80.9612 112.312 81.0368C112.616 81.1125 112.881 81.3396 112.843 81.6801C112.843 82.0964 112.502 82.4369 111.895 82.3991C111.63 82.3991 111.365 82.2856 111.251 82.2099L111.365 82.0585Z" fill="#8C9DB5"/>
<path d="M114.966 81.226C114.966 82.0964 114.625 82.5505 114.056 82.5505C113.563 82.5505 113.26 82.0585 113.26 81.226C113.26 80.3935 113.639 79.9395 114.17 79.9395C114.7 79.9773 114.966 80.4314 114.966 81.226ZM113.601 81.2639C113.601 81.9072 113.791 82.2856 114.094 82.2856C114.435 82.2856 114.625 81.9072 114.625 81.2639C114.625 80.6584 114.473 80.2422 114.132 80.2422C113.829 80.2043 113.601 80.5827 113.601 81.2639Z" fill="#8C9DB5"/>
<path d="M148.625 92.5403C151.733 91.2916 153.666 87.8481 153.666 84.8587C153.666 81.8693 151.24 79.4475 148.246 79.4475C145.251 79.4475 142.825 81.8693 142.825 84.8587C142.825 85.8047 143.015 86.5237 143.356 87.0913" stroke="#FF6117" stroke-width="5" stroke-miterlimit="10" stroke-linecap="round" stroke-linejoin="round"/>
<path d="M147.26 90.951C147.109 90.7997 146.047 90.1942 145.668 90.5348L137.367 98.8219C137.291 98.8975 137.253 98.9732 137.178 99.0867L123.456 104.801L57.0088 179.725V209.733L103.101 149.49L109.734 149.225L108.711 147.788L136.571 116.191L140.437 101.963C140.513 101.887 140.589 101.849 140.665 101.773L147.905 92.4268C147.943 92.389 147.526 91.2159 147.26 90.951Z" fill="#8B8B8B"/>
<path d="M10.2721 211.019C9.09705 212.003 7.54295 212.041 6.78485 211.133L0.378926 203.262C-0.341267 202.354 -0.000122905 200.84 1.21283 199.856L9.21076 193.348C10.3858 192.402 11.9778 192.326 12.698 193.234L19.1039 201.067C19.862 201.975 19.483 203.489 18.3079 204.435L10.2721 211.019Z" fill="#727272"/>
<path d="M87.0674 131.516C88.1287 130.722 89.3038 130.305 90.403 130.154L90.2893 130.04C89.5312 129.132 87.9771 129.17 86.802 130.116L86.0439 130.759C86.4609 130.949 86.802 131.214 87.0674 131.516Z" fill="#FF763B"/>
<path d="M14.6311 188.466L24.1452 200.121L134.941 109.947L125.427 98.2922L14.6311 188.466Z" fill="#FFC83D"/>
<path d="M14.6311 188.466L17.4361 191.91L128.232 101.736L125.427 98.2922L14.6311 188.466Z" fill="#FFD44C"/>
<path d="M21.2266 196.564L24.1452 200.121L134.941 109.947L132.023 106.39L21.2266 196.564Z" fill="#E5A67C"/>
<path d="M142.105 94.4325L125.427 98.2922L134.941 109.947L142.105 94.4325Z" fill="#E5CAA3"/>
<path d="M142.105 94.4325L125.427 98.2922L128.232 101.736L142.105 94.4325Z" fill="white"/>
<path d="M132.023 106.39L142.105 94.4325L128.232 101.736" fill="#F9ECD7"/>
<path d="M23.3873 202.808C22.4018 203.603 21.0372 203.489 20.2791 202.581L11.4472 191.796C10.6891 190.888 10.8787 189.526 11.8642 188.731C12.8497 187.937 14.2143 188.012 14.9724 188.92L23.8042 199.743C24.5623 200.651 24.3728 202.013 23.3873 202.808Z" fill="white"/>
<path d="M19.8621 205.684C18.8766 206.478 17.512 206.365 16.7539 205.457L7.92209 194.634C7.16399 193.726 7.35352 192.364 8.33905 191.569C9.32457 190.775 10.6891 190.85 11.4472 191.758L20.2791 202.581C21.0372 203.527 20.8477 204.889 19.8621 205.684Z" fill="white"/>
<path d="M148.056 91.1782C148.056 91.1782 147.867 90.1186 147.677 89.8537C147.564 89.7024 146.768 89.0212 146.389 89.2861L138.125 95.1893C137.291 95.8704 137.178 97.0434 137.86 97.8759C138.542 98.6706 139.717 98.822 140.551 98.1408L148.056 91.1782Z" fill="#283042"/>
</g>
<defs>
<clipPath id="clip0">
<rect width="220" height="225" fill="white"/>
</clipPath>
</defs>
</svg>
