<svg width="189" height="49" viewBox="0 0 189 49" fill="none" xmlns="http://www.w3.org/2000/svg">
<rect width="51" height="49" rx="24.5" fill="#FFC83D"/>
<path d="M1.95505 33V13.7644H16.2177V17.0185H5.83889V21.2828H15.496V24.5238H5.83889V29.7591H16.5851V33H1.95505ZM32.6322 33H29.2076V30.9531C28.639 31.7491 27.9655 32.3439 27.1869 32.7376C26.4172 33.1225 25.6387 33.3149 24.8514 33.3149C23.2506 33.3149 21.8773 32.672 20.7314 31.3861C19.5942 30.0915 19.0256 28.2895 19.0256 25.9802C19.0256 23.6184 19.5811 21.8252 20.692 20.6005C21.8029 19.3672 23.2069 18.7505 24.9039 18.7505C26.4609 18.7505 27.808 19.3978 28.9452 20.6924V13.7644H32.6322V33ZM22.7914 25.7309C22.7914 27.218 22.9969 28.2939 23.4081 28.9587C24.0029 29.9209 24.8339 30.402 25.9011 30.402C26.7496 30.402 27.4712 30.0434 28.0661 29.3261C28.6609 28.6001 28.9583 27.5197 28.9583 26.0852C28.9583 24.4844 28.6696 23.3341 28.0923 22.6343C27.515 21.9258 26.7758 21.5715 25.8748 21.5715C25.0001 21.5715 24.2653 21.9214 23.6705 22.6212C23.0844 23.3122 22.7914 24.3488 22.7914 25.7309ZM45.4515 33V30.9137C44.9442 31.6573 44.275 32.2433 43.444 32.672C42.6217 33.1006 41.7514 33.3149 40.8329 33.3149C39.8969 33.3149 39.0572 33.1093 38.3137 32.6982C37.5701 32.2871 37.0322 31.7098 36.6998 30.9662C36.3674 30.2227 36.2012 29.1949 36.2012 27.8828V19.0654H39.8882V25.4685C39.8882 27.4279 39.9538 28.6307 40.085 29.0768C40.225 29.5142 40.4743 29.8641 40.8329 30.1265C41.1915 30.3802 41.6464 30.507 42.1975 30.507C42.8273 30.507 43.3915 30.3364 43.8901 29.9953C44.3887 29.6454 44.7299 29.2167 44.9136 28.7094C45.0973 28.1933 45.1891 26.938 45.1891 24.9436V19.0654H48.8761V33H45.4515Z" fill="#7A7A7A"/>
<path d="M52.7338 33V13.7644H66.9964V17.0185H56.6176V21.2828H66.2747V24.5238H56.6176V29.7591H67.3638V33H52.7338ZM70.6047 33V13.7644H76.4174L79.9076 26.8856L83.3584 13.7644H89.1842V33H85.5759V17.8582L81.7577 33H78.0181L74.213 17.8582V33H70.6047ZM95.771 23.3166L92.4251 22.713C92.8013 21.3659 93.4486 20.3687 94.367 19.7214C95.2855 19.0741 96.6501 18.7505 98.4608 18.7505C100.105 18.7505 101.33 18.9473 102.135 19.3409C102.939 19.7258 103.504 20.22 103.827 20.8236C104.16 21.4184 104.326 22.5162 104.326 24.117L104.287 28.4207C104.287 29.6454 104.343 30.5507 104.457 31.1368C104.58 31.7141 104.803 32.3352 105.126 33H101.479C101.382 32.7551 101.264 32.3921 101.124 31.9109C101.063 31.6923 101.019 31.5479 100.993 31.478C100.363 32.0903 99.6898 32.5495 98.9725 32.8557C98.2553 33.1618 97.4899 33.3149 96.6764 33.3149C95.2418 33.3149 94.109 32.9256 93.278 32.1471C92.4557 31.3686 92.0446 30.3845 92.0446 29.1949C92.0446 28.4076 92.2327 27.7078 92.6088 27.0955C92.9849 26.4744 93.5098 26.0021 94.1833 25.6784C94.8656 25.346 95.8454 25.0574 97.1225 24.8124C98.8457 24.4888 100.04 24.187 100.705 23.9071V23.5397C100.705 22.8311 100.53 22.3282 100.18 22.0308C99.8298 21.7246 99.1694 21.5715 98.1984 21.5715C97.5423 21.5715 97.0306 21.7027 96.6632 21.9651C96.2958 22.2188 95.9984 22.6693 95.771 23.3166ZM100.705 26.3082C100.232 26.4657 99.4843 26.6538 98.4608 26.8724C97.4374 27.0911 96.7682 27.3054 96.4533 27.5154C95.9722 27.8565 95.7316 28.2895 95.7316 28.8144C95.7316 29.3305 95.9241 29.7766 96.309 30.1527C96.6939 30.5289 97.1837 30.7169 97.7785 30.7169C98.4433 30.7169 99.0775 30.4982 99.6811 30.0609C100.127 29.7285 100.42 29.3217 100.56 28.8406C100.656 28.5257 100.705 27.9265 100.705 27.043V26.3082ZM107.974 17.1759V13.7644H111.661V17.1759H107.974ZM107.974 33V19.0654H111.661V33H107.974ZM115.453 33V13.7644H119.14V33H115.453ZM140.304 33H136.079L134.4 28.6307H126.711L125.123 33H121.003L128.495 13.7644H132.602L140.304 33ZM133.153 25.3898L130.503 18.2519L127.905 25.3898H133.153ZM142.246 19.0654H145.684V21.1123C146.13 20.4125 146.733 19.8439 147.494 19.4065C148.255 18.9692 149.1 18.7505 150.027 18.7505C151.645 18.7505 153.018 19.3847 154.147 20.653C155.275 21.9214 155.839 23.6884 155.839 25.954C155.839 28.2808 155.271 30.0915 154.134 31.3861C152.997 32.672 151.619 33.3149 150.001 33.3149C149.231 33.3149 148.531 33.1618 147.901 32.8557C147.28 32.5495 146.624 32.0247 145.933 31.2811V38.3009H142.246V19.0654ZM145.894 25.7965C145.894 27.3623 146.204 28.5213 146.825 29.2736C147.446 30.0171 148.203 30.3889 149.095 30.3889C149.952 30.3889 150.665 30.0477 151.234 29.3655C151.803 28.6744 152.087 27.546 152.087 25.9802C152.087 24.5194 151.794 23.4347 151.208 22.7262C150.622 22.0176 149.896 21.6634 149.03 21.6634C148.129 21.6634 147.381 22.0133 146.786 22.713C146.191 23.4041 145.894 24.4319 145.894 25.7965ZM158.674 19.0654H162.111V21.1123C162.557 20.4125 163.161 19.8439 163.922 19.4065C164.683 18.9692 165.527 18.7505 166.454 18.7505C168.073 18.7505 169.446 19.3847 170.574 20.653C171.703 21.9214 172.267 23.6884 172.267 25.954C172.267 28.2808 171.699 30.0915 170.561 31.3861C169.424 32.672 168.046 33.3149 166.428 33.3149C165.658 33.3149 164.959 33.1618 164.329 32.8557C163.708 32.5495 163.052 32.0247 162.361 31.2811V38.3009H158.674V19.0654ZM162.321 25.7965C162.321 27.3623 162.632 28.5213 163.253 29.2736C163.874 30.0171 164.631 30.3889 165.523 30.3889C166.38 30.3889 167.093 30.0477 167.662 29.3655C168.23 28.6744 168.514 27.546 168.514 25.9802C168.514 24.5194 168.221 23.4347 167.635 22.7262C167.049 22.0176 166.323 21.6634 165.457 21.6634C164.556 21.6634 163.808 22.0133 163.214 22.713C162.619 23.4041 162.321 24.4319 162.321 25.7965ZM173.907 29.0243L177.607 28.4601C177.765 29.1774 178.084 29.7241 178.565 30.1002C179.046 30.4676 179.72 30.6513 180.586 30.6513C181.539 30.6513 182.257 30.4764 182.738 30.1265C183.061 29.8815 183.223 29.5535 183.223 29.1424C183.223 28.8625 183.136 28.6307 182.961 28.447C182.777 28.272 182.366 28.1102 181.727 27.9615C178.753 27.3054 176.868 26.7062 176.072 26.1639C174.97 25.4116 174.419 24.3663 174.419 23.028C174.419 21.8208 174.896 20.8061 175.849 19.9839C176.803 19.1616 178.281 18.7505 180.284 18.7505C182.191 18.7505 183.608 19.061 184.535 19.6821C185.463 20.3031 186.101 21.2216 186.451 22.4375L182.974 23.0804C182.825 22.5381 182.541 22.1226 182.121 21.8339C181.71 21.5453 181.119 21.4009 180.35 21.4009C179.379 21.4009 178.683 21.5365 178.263 21.8077C177.984 22.0001 177.844 22.2494 177.844 22.5556C177.844 22.818 177.966 23.0411 178.211 23.2248C178.543 23.4697 179.689 23.8152 181.649 24.2613C183.617 24.7075 184.99 25.2542 185.769 25.9015C186.538 26.5575 186.923 27.4716 186.923 28.6438C186.923 29.9209 186.39 31.0187 185.323 31.9372C184.255 32.8557 182.676 33.3149 180.586 33.3149C178.688 33.3149 177.183 32.93 176.072 32.1602C174.97 31.3905 174.248 30.3452 173.907 29.0243Z" fill="white"/>
</svg>
