<svg width="385" height="352" viewBox="0 0 385 352" fill="none" xmlns="http://www.w3.org/2000/svg">
<path d="M192.5 352C298.815 352 385 349.985 385 347.5C385 345.015 298.815 343 192.5 343C86.1852 343 0 345.015 0 347.5C0 349.985 86.1852 352 192.5 352Z" fill="#009295"/>
<path d="M251.044 60.4508C251.367 59.5558 253.814 60.044 256.513 61.4678C259.175 62.8916 257.952 66.0646 255.289 64.6408C252.591 63.1763 250.684 61.3051 251.044 60.4508Z" fill="#FEBC8B"/>
<path d="M256.36 345H104.64C95.4489 345 88 337.584 88 328.434V16.5656C88 7.41578 95.4489 0 104.64 0H256.36C265.551 0 273 7.41578 273 16.5656V328.434C273 337.584 265.551 345 256.36 345Z" fill="#AE402D"/>
<path d="M268 15H91V312H268V15Z" fill="#FFA595"/>
<path d="M151 9C151 9.54545 150.318 10 149.5 10C148.682 10 148 9.54545 148 9C148 8.45455 148.682 8 149.5 8C150.318 8 151 8.43636 151 9Z" fill="#912D1B"/>
<path d="M188.753 331.332C189.913 326.421 186.872 321.5 181.961 320.341C177.051 319.181 172.13 322.222 170.97 327.133C169.811 332.044 172.852 336.964 177.762 338.124C182.673 339.284 187.594 336.243 188.753 331.332Z" fill="#912D1B"/>
<path d="M199.023 10H159.977C158.899 10 158 9.54545 158 9C158 8.45455 158.899 8 159.977 8H199.023C200.101 8 201 8.45455 201 9C201 9.54545 200.101 10 199.023 10Z" fill="#912D1B"/>
<path d="M261 27H107V283H261V27Z" fill="#EA8B83"/>
<path d="M257 23H104V280H257V23Z" fill="white"/>
<path d="M121.639 42.7579C122.08 40.8891 120.923 39.0163 119.054 38.575C117.185 38.1337 115.312 39.291 114.871 41.1599C114.43 43.0287 115.587 44.9015 117.456 45.3428C119.325 45.7841 121.197 44.6268 121.639 42.7579Z" fill="#EA8B83"/>
<path d="M120 23H118V42H120V23Z" fill="#EA8B83"/>
<path d="M137.237 42.7905C137.678 40.9216 136.521 39.0489 134.652 38.6076C132.783 38.1663 130.911 39.3236 130.469 41.1924C130.028 43.0613 131.185 44.934 133.054 45.3753C134.923 45.8166 136.796 44.6593 137.237 42.7905Z" fill="#EA8B83"/>
<path d="M135 23H133V42H135V23Z" fill="#EA8B83"/>
<path d="M152.844 42.787C153.286 40.9182 152.128 39.0454 150.26 38.6042C148.391 38.1629 146.518 39.3201 146.077 41.189C145.635 43.0578 146.793 44.9306 148.661 45.3719C150.53 45.8132 152.403 44.6559 152.844 42.787Z" fill="#EA8B83"/>
<path d="M151 23H149V42H151V23Z" fill="#EA8B83"/>
<path d="M168.452 42.7836C168.893 40.9147 167.736 39.042 165.867 38.6007C163.998 38.1594 162.125 39.3167 161.684 41.1855C161.242 43.0544 162.4 44.9271 164.269 45.3684C166.137 45.8097 168.01 44.6524 168.452 42.7836Z" fill="#EA8B83"/>
<path d="M166 23H164V42H166V23Z" fill="#EA8B83"/>
<path d="M183.123 44.4246C184.481 43.0667 184.481 40.8652 183.123 39.5073C181.766 38.1494 179.564 38.1494 178.206 39.5073C176.848 40.8652 176.848 43.0667 178.206 44.4245C179.564 45.7824 181.766 45.7824 183.123 44.4246Z" fill="#EA8B83"/>
<path d="M183 23H180V42H183V23Z" fill="#EA8B83"/>
<path d="M198.732 44.4216C200.09 43.0637 200.09 40.8622 198.732 39.5044C197.374 38.1465 195.172 38.1465 193.815 39.5044C192.457 40.8622 192.457 43.0638 193.815 44.4216C195.172 45.7795 197.374 45.7795 198.732 44.4216Z" fill="#EA8B83"/>
<path d="M199 23H195V42H199V23Z" fill="#EA8B83"/>
<path d="M214.34 44.4186C215.698 43.0608 215.698 40.8593 214.34 39.5014C212.982 38.1435 210.781 38.1435 209.423 39.5014C208.065 40.8592 208.065 43.0608 209.423 44.4186C210.781 45.7765 212.982 45.7765 214.34 44.4186Z" fill="#EA8B83"/>
<path d="M214 23H212V42H214V23Z" fill="#EA8B83"/>
<path d="M229.948 44.4157C231.306 43.0578 231.306 40.8563 229.948 39.4984C228.591 38.1406 226.389 38.1406 225.031 39.4984C223.673 40.8563 223.673 43.0578 225.031 44.4157C226.389 45.7735 228.591 45.7735 229.948 44.4157Z" fill="#EA8B83"/>
<path d="M230 23H227V42H230V23Z" fill="#EA8B83"/>
<path d="M246.533 42.504C246.841 40.6085 245.554 38.8224 243.658 38.5148C241.763 38.2072 239.977 39.4944 239.669 41.39C239.361 43.2855 240.649 45.0716 242.544 45.3792C244.44 45.6868 246.226 44.3996 246.533 42.504Z" fill="#EA8B83"/>
<path d="M244 23H242V42H244V23Z" fill="#EA8B83"/>
<path d="M244.481 86H115.519C114.667 86 114 85.3494 114 84.5181V84.4819C114 83.6506 114.667 83 115.519 83H244.481C245.333 83 246 83.6506 246 84.4819V84.5181C246 85.3494 245.333 86 244.481 86Z" fill="#EEE7DB"/>
<path d="M244.481 120H115.519C114.667 120 114 119.349 114 118.518V118.482C114 117.651 114.667 117 115.519 117H244.481C245.333 117 246 117.651 246 118.482V118.518C246 119.313 245.333 120 244.481 120Z" fill="#EEE7DB"/>
<path d="M244.481 153H115.519C114.667 153 114 152.783 114 152.506V152.494C114 152.217 114.667 152 115.519 152H244.481C245.333 152 246 152.217 246 152.494V152.506C246 152.783 245.333 153 244.481 153Z" fill="#EEE7DB"/>
<path d="M244.481 186H115.519C114.667 186 114 185.566 114 185.012V184.988C114 184.434 114.667 184 115.519 184H244.481C245.333 184 246 184.434 246 184.988V185.012C246 185.542 245.333 186 244.481 186Z" fill="#EEE7DB"/>
<path d="M244.481 220H115.519C114.667 220 114 219.566 114 219.012V218.988C114 218.434 114.667 218 115.519 218H244.481C245.333 218 246 218.434 246 218.988V219.012C246 219.566 245.333 220 244.481 220Z" fill="#EEE7DB"/>
<path d="M244.481 255H115.519C114.667 255 114 254.133 114 253.024V252.976C114 251.868 114.667 251 115.519 251H244.481C245.333 251 246 251.868 246 252.976V253.024C246 254.084 245.333 255 244.481 255Z" fill="#EEE7DB"/>
<path d="M117 105.457C117 103.524 118.348 102 119.984 102C121.524 102 122.807 103.375 122.968 105.085C122.968 105.085 122.968 105.086 122.968 105.123C122.968 105.383 123 105.68 123 105.941C123 106.907 122.872 107.911 122.583 108.877C122.262 109.807 121.781 110.736 120.979 111.331C120.465 111.74 119.824 111.963 119.118 112C118.733 112 118.412 111.703 118.412 111.257C118.412 110.81 118.701 110.476 119.086 110.439C119.567 110.439 119.92 110.253 120.241 110.03C120.561 109.77 120.818 109.472 121.011 109.026C121.075 108.914 121.107 108.766 121.171 108.654C120.818 108.84 120.401 108.952 119.984 108.952C118.316 108.915 117 107.353 117 105.457ZM118.348 105.457C118.348 106.498 119.086 107.353 119.984 107.353C120.882 107.353 121.588 106.498 121.588 105.457C121.588 104.416 120.882 103.599 119.984 103.599C119.086 103.599 118.348 104.416 118.348 105.457Z" fill="#2A3244"/>
<path d="M135 108.062V111.171C135 111.627 134.703 112 134.341 112C134.011 112 133.747 111.71 133.681 111.295C133.187 111.71 132.626 112 132 112C131.143 112 130.385 111.544 129.857 110.839C129.297 110.093 129 109.098 129 108.021C129 106.902 129.33 105.948 129.857 105.202C130.418 104.456 131.143 104 132 104C132.626 104 133.22 104.29 133.681 104.705C133.747 104.29 134.011 104 134.341 104C134.703 104 135 104.373 135 104.87V108.062ZM133.648 108.062C133.648 107.399 133.451 106.819 133.154 106.404C132.857 105.99 132.429 105.741 131.967 105.741C131.505 105.741 131.077 105.948 130.78 106.404C130.484 106.819 130.286 107.358 130.286 108.062C130.286 108.725 130.451 109.306 130.78 109.72C131.077 110.135 131.505 110.342 131.967 110.342C132.396 110.342 132.857 110.135 133.154 109.72C133.451 109.306 133.648 108.725 133.648 108.062Z" fill="#2A3244"/>
<path d="M144.771 107.292V107.333V111.125C144.771 111.583 144.448 111.958 144.054 111.958C143.659 111.958 143.301 111.583 143.301 111.125V107.333V107.292C143.301 106.417 142.656 105.708 141.867 105.708C141.115 105.708 140.47 106.458 140.47 107.375V111.167C140.47 111.208 140.47 111.25 140.47 111.292V111.333C140.47 111.375 140.47 111.417 140.434 111.417C140.434 111.417 140.434 111.458 140.434 111.5C140.326 111.792 140.039 112 139.753 112C139.681 112 139.645 112 139.609 112C139.287 111.917 139 111.583 139 111.167V107.375V104.875C139 104.375 139.323 104 139.717 104C140.004 104 140.254 104.167 140.362 104.5C140.792 104.208 141.33 104 141.832 104C142.692 104 143.48 104.417 143.982 105.125C144.484 104.417 145.272 104 146.133 104C147.71 104 149 105.5 149 107.375V111.167C149 111.625 148.677 112 148.283 112C147.889 112 147.53 111.625 147.53 111.167V107.375C147.53 106.458 146.885 105.708 146.133 105.708C145.416 105.708 144.806 106.417 144.771 107.292Z" fill="#2A3244"/>
<path d="M152.491 104C152.772 104 153 104.495 153 105.105C153 105.714 152.772 106.171 152.491 106.171C152.211 106.171 152 105.676 152 105.105C152 104.495 152.211 104 152.491 104ZM152.491 109.829C152.772 109.829 153 110.324 153 110.933C153 111.543 152.772 112 152.491 112C152.211 112 152 111.505 152 110.933C152 110.362 152.211 109.829 152.491 109.829Z" fill="#2A3244"/>
<path d="M118.892 136.746V145.216C118.892 145.664 118.352 146 117.703 146C117.055 146 116.568 145.664 116.568 145.216V138.164L115.758 138.5C115.595 138.575 115.379 138.612 115.163 138.612C114.785 138.612 114.407 138.463 114.19 138.201C113.812 137.828 114.028 137.343 114.569 137.119L117.109 136.075C117.109 136.075 117.163 136.075 117.217 136.037C117.271 136.037 117.271 136 117.325 136C117.379 136 117.433 136 117.433 136C117.433 136 117.487 136 117.541 136C117.595 136 117.649 136 117.703 136H117.757C117.811 136 117.865 136 117.919 136C117.919 136 117.973 136 118.027 136C118.081 136 118.135 136 118.135 136.037C118.135 136.037 118.189 136.037 118.243 136.037C118.297 136.075 118.352 136.075 118.352 136.075C118.352 136.075 118.406 136.112 118.46 136.112C118.46 136.112 118.514 136.149 118.568 136.149C118.622 136.149 118.622 136.187 118.676 136.224C118.676 136.224 118.73 136.261 118.73 136.299C118.73 136.299 118.784 136.336 118.838 136.373V136.41V136.448C118.838 136.485 118.892 136.485 118.892 136.522C118.892 136.56 118.892 136.597 118.946 136.597C118.946 136.634 118.946 136.672 118.946 136.672C118.946 136.709 118.946 136.746 119 136.784C118.892 136.709 118.892 136.746 118.892 136.746Z" fill="#2A3244"/>
<path d="M126.961 145.219C126.961 145.665 126.61 146 126.142 146H120.839C120.605 146 120.371 145.926 120.215 145.74C119.903 145.405 119.942 144.922 120.254 144.625L124.699 140.796C125.128 140.424 125.323 139.941 125.323 139.42C125.323 138.974 125.167 138.528 124.816 138.193C124.427 137.784 123.92 137.599 123.374 137.599C122.906 137.599 122.438 137.747 122.087 138.082L121.619 138.491C121.268 138.788 120.761 138.751 120.449 138.416C120.137 138.082 120.176 137.599 120.527 137.301L120.995 136.892C121.658 136.297 122.555 136 123.413 136C124.388 136 125.362 136.372 126.064 137.115C126.688 137.747 127 138.602 127 139.42C127 140.349 126.61 141.279 125.83 141.948L122.984 144.401H126.181C126.61 144.401 126.961 144.773 126.961 145.219Z" fill="#2A3244"/>
<path d="M140 142.062V145.171C140 145.627 139.654 146 139.231 146C138.846 146 138.538 145.71 138.462 145.295C137.885 145.71 137.231 146 136.5 146C135.5 146 134.615 145.544 134 144.839C133.346 144.093 133 143.098 133 142.021C133 140.902 133.385 139.948 134 139.202C134.654 138.456 135.5 138 136.5 138C137.231 138 137.923 138.29 138.462 138.705C138.538 138.29 138.846 138 139.231 138C139.654 138 140 138.373 140 138.87V142.062ZM138.423 142.062C138.423 141.399 138.192 140.819 137.846 140.404C137.5 139.99 137 139.741 136.462 139.741C135.923 139.741 135.423 139.948 135.077 140.404C134.731 140.819 134.5 141.358 134.5 142.062C134.5 142.725 134.692 143.306 135.077 143.72C135.423 144.135 135.923 144.342 136.462 144.342C136.962 144.342 137.5 144.135 137.846 143.72C138.192 143.306 138.423 142.725 138.423 142.062Z" fill="#2A3244"/>
<path d="M147.771 141.292V141.333V145.125C147.771 145.583 147.448 145.958 147.054 145.958C146.66 145.958 146.301 145.583 146.301 145.125V141.333V141.292C146.301 140.417 145.656 139.708 144.867 139.708C144.115 139.708 143.47 140.458 143.47 141.375V145.167C143.47 145.208 143.47 145.25 143.47 145.292V145.333C143.47 145.375 143.47 145.417 143.434 145.417C143.434 145.417 143.434 145.458 143.434 145.5C143.326 145.792 143.039 146 142.753 146C142.681 146 142.645 146 142.609 146C142.287 145.917 142 145.583 142 145.167V141.375V138.875C142 138.375 142.323 138 142.717 138C143.004 138 143.254 138.167 143.362 138.5C143.792 138.208 144.33 138 144.832 138C145.692 138 146.48 138.417 146.982 139.125C147.484 138.417 148.272 138 149.133 138C150.71 138 152 139.5 152 141.375V145.167C152 145.625 151.677 146 151.283 146C150.889 146 150.53 145.625 150.53 145.167V141.375C150.53 140.458 149.885 139.708 149.133 139.708C148.416 139.708 147.806 140.417 147.771 141.292Z" fill="#2A3244"/>
<path d="M156.474 138C157.316 138 158 138.493 158 139.1C158 139.706 157.316 140.161 156.474 140.161C155.632 140.161 155 139.668 155 139.1C155 138.531 155.632 138 156.474 138ZM156.474 143.839C157.316 143.839 158 144.332 158 144.938C158 145.545 157.316 146 156.474 146C155.632 146 155 145.507 155 144.938C155 144.37 155.632 143.839 156.474 143.839Z" fill="#2A3244"/>
<path d="M120.337 172.963C120.787 173.63 121 174.556 121 175.444C121 176.333 120.787 177.259 120.337 177.963C119.911 178.63 119.32 179 118.728 179C118.16 179 117.568 178.63 117.142 177.963C116.953 177.667 116.953 177.148 117.142 176.815C117.331 176.519 117.663 176.519 117.876 176.815C118.112 177.185 118.42 177.37 118.751 177.37C119.083 177.37 119.391 177.185 119.627 176.815C119.864 176.444 119.982 175.963 119.982 175.444C119.982 174.963 119.864 174.444 119.627 174.074C119.391 173.704 119.083 173.519 118.751 173.519C118.609 173.519 118.467 173.444 118.373 173.259C118.16 172.963 118.16 172.444 118.349 172.111L119.272 170.63H117.805C117.521 170.63 117.284 170.259 117.284 169.815C117.284 169.37 117.521 169 117.805 169H120.479C120.763 169 121 169.37 121 169.815C121 169.963 120.976 170.074 120.929 170.185C120.905 170.259 120.882 170.333 120.834 170.37L119.698 172.222C119.935 172.444 120.148 172.667 120.337 172.963Z" fill="#2A3244"/>
<path d="M129 183.087V176.985V173.83C129 173.374 129.339 173 129.753 173C130.167 173 130.505 173.291 130.543 173.664C131.07 173.291 131.785 173 132.5 173C134.419 173 136 174.826 136 177.026C136 179.226 134.419 180.97 132.5 180.97C131.785 180.97 131.07 180.721 130.543 180.306V183.128C130.543 183.585 130.167 184 129.715 184C129.339 183.958 129 183.543 129 183.087ZM130.581 176.943C130.581 177.566 130.769 178.189 131.145 178.521C131.522 178.977 131.973 179.185 132.538 179.185C133.027 179.185 133.516 178.977 133.892 178.521C134.231 178.147 134.457 177.566 134.457 176.943C134.457 176.321 134.231 175.74 133.892 175.325C133.516 174.909 133.027 174.66 132.538 174.66C132.011 174.66 131.522 174.868 131.145 175.325C130.769 175.781 130.581 176.321 130.581 176.943Z" fill="#2A3244"/>
<path d="M144.771 175.469V175.5V178.344C144.771 178.688 144.448 178.969 144.054 178.969C143.66 178.969 143.301 178.688 143.301 178.344V175.5V175.469C143.301 174.812 142.656 174.281 141.867 174.281C141.115 174.281 140.47 174.844 140.47 175.531V178.375C140.47 178.406 140.47 178.438 140.47 178.469V178.5C140.47 178.531 140.47 178.563 140.434 178.563C140.434 178.563 140.434 178.594 140.434 178.625C140.326 178.844 140.039 179 139.753 179C139.681 179 139.645 179 139.609 179C139.287 178.938 139 178.687 139 178.375V175.531V173.656C139 173.281 139.323 173 139.717 173C140.004 173 140.254 173.125 140.362 173.375C140.792 173.156 141.33 173 141.832 173C142.692 173 143.48 173.312 143.982 173.844C144.484 173.312 145.272 173 146.133 173C147.71 173 149 174.125 149 175.531V178.375C149 178.719 148.677 179 148.283 179C147.889 179 147.53 178.719 147.53 178.375V175.531C147.53 174.844 146.885 174.281 146.133 174.281C145.416 174.25 144.771 174.781 144.771 175.469Z" fill="#2A3244"/>
<path d="M152.983 173C153.544 173 154 173.371 154 173.829C154 174.286 153.544 174.629 152.983 174.629C152.423 174.629 152.002 174.257 152.002 173.829C151.967 173.371 152.423 173 152.983 173ZM152.983 177.371C153.544 177.371 154 177.743 154 178.2C154 178.657 153.544 179 152.983 179C152.423 179 152.002 178.629 152.002 178.2C151.967 177.743 152.423 177.371 152.983 177.371Z" fill="#2A3244"/>
<path d="M123 211.197C123 213.323 121.652 215 120.016 215C118.476 215 117.193 213.487 117.032 211.606C117.032 211.606 117.032 211.606 117.032 211.565C117.032 211.279 117 210.952 117 210.665C117 209.602 117.128 208.498 117.417 207.435C117.738 206.413 118.219 205.39 119.021 204.736C119.535 204.286 120.176 204.041 120.882 204C121.267 204 121.588 204.327 121.588 204.818C121.588 205.309 121.299 205.677 120.914 205.717C120.433 205.717 120.08 205.922 119.759 206.167C119.439 206.454 119.182 206.781 118.989 207.271C118.925 207.394 118.893 207.558 118.829 207.68C119.182 207.476 119.599 207.353 120.016 207.353C121.652 207.394 123 209.112 123 211.197ZM121.62 211.197C121.62 210.052 120.882 209.112 119.984 209.112C119.086 209.112 118.38 210.052 118.38 211.197C118.38 212.342 119.086 213.242 119.984 213.242C120.914 213.283 121.62 212.342 121.62 211.197Z" fill="#2A3244"/>
<path d="M129 216.17V210.623V207.755C129 207.34 129.339 207 129.753 207C130.167 207 130.505 207.264 130.543 207.604C131.07 207.264 131.785 207 132.5 207C134.419 207 136 208.66 136 210.66C136 212.66 134.419 214.245 132.5 214.245C131.785 214.245 131.07 214.019 130.543 213.642V216.208C130.543 216.623 130.167 217 129.715 217C129.339 216.962 129 216.585 129 216.17ZM130.618 210.623C130.618 211.189 130.806 211.755 131.183 212.057C131.559 212.472 132.011 212.66 132.575 212.66C133.065 212.66 133.554 212.472 133.93 212.057C134.269 211.717 134.495 211.189 134.495 210.623C134.495 210.057 134.269 209.528 133.93 209.151C133.554 208.774 133.065 208.547 132.575 208.547C132.048 208.547 131.559 208.736 131.183 209.151C130.806 209.528 130.618 210.057 130.618 210.623Z" fill="#2A3244"/>
<path d="M145.348 210.292V210.333V214.125C145.348 214.583 144.993 214.958 144.559 214.958C144.125 214.958 143.731 214.583 143.731 214.125V210.333V210.292C143.731 209.417 143.022 208.708 142.154 208.708C141.326 208.708 140.616 209.458 140.616 210.375V214.167C140.616 214.208 140.616 214.25 140.616 214.292V214.333C140.616 214.375 140.616 214.417 140.577 214.417C140.577 214.417 140.577 214.458 140.577 214.5C140.459 214.792 140.143 215 139.828 215C139.749 215 139.71 215 139.67 215C139.315 214.917 139 214.583 139 214.167V210.375V207.875C139 207.375 139.355 207 139.789 207C140.104 207 140.38 207.167 140.498 207.5C140.971 207.208 141.563 207 142.115 207C143.061 207 143.928 207.417 144.48 208.125C145.032 207.417 145.9 207 146.846 207C148.581 207 150 208.5 150 210.375V214.167C150 214.625 149.645 215 149.211 215C148.778 215 148.384 214.625 148.384 214.167V210.375C148.384 209.458 147.674 208.708 146.846 208.708C146.057 208.667 145.387 209.375 145.348 210.292Z" fill="#2A3244"/>
<path d="M152.982 206C153.544 206 154 206.557 154 207.243C154 207.929 153.544 208.443 152.982 208.443C152.421 208.443 152 207.886 152 207.243C152 206.557 152.421 206 152.982 206ZM152.982 212.557C153.544 212.557 154 213.114 154 213.8C154 214.486 153.544 215 152.982 215C152.421 215 152 214.443 152 213.8C152 213.114 152.421 212.557 152.982 212.557Z" fill="#2A3244"/>
<path d="M117 242.112C117 240.372 118.348 239 119.984 239C121.524 239 122.807 240.238 122.968 241.777C122.968 241.777 122.968 241.777 122.968 241.81C122.968 242.045 123 242.312 123 242.546C123 243.416 122.872 244.32 122.583 245.19C122.262 246.026 121.781 246.862 120.979 247.398C120.465 247.766 119.824 247.967 119.118 248C118.733 248 118.412 247.732 118.412 247.331C118.412 246.929 118.701 246.628 119.086 246.595C119.567 246.595 119.92 246.428 120.241 246.227C120.561 245.993 120.818 245.725 121.011 245.323C121.075 245.223 121.107 245.089 121.171 244.989C120.818 245.156 120.401 245.257 119.984 245.257C118.316 245.223 117 243.851 117 242.112ZM118.348 242.112C118.348 243.048 119.086 243.818 119.984 243.818C120.882 243.818 121.588 243.048 121.588 242.112C121.588 241.175 120.882 240.439 119.984 240.439C119.086 240.439 118.348 241.175 118.348 242.112Z" fill="#2A3244"/>
<path d="M129 249.253V244.26V241.679C129 241.306 129.339 241 129.753 241C130.167 241 130.505 241.238 130.543 241.543C131.07 241.238 131.785 241 132.5 241C134.419 241 136 242.494 136 244.294C136 246.094 134.419 247.521 132.5 247.521C131.785 247.521 131.07 247.317 130.543 246.977V249.287C130.543 249.66 130.167 250 129.715 250C129.339 249.966 129 249.626 129 249.253ZM130.618 244.26C130.618 244.77 130.806 245.279 131.183 245.551C131.559 245.925 132.011 246.094 132.575 246.094C133.065 246.094 133.554 245.925 133.93 245.551C134.269 245.245 134.495 244.77 134.495 244.26C134.495 243.751 134.269 243.275 133.93 242.936C133.554 242.596 133.065 242.392 132.575 242.392C132.048 242.392 131.559 242.562 131.183 242.936C130.806 243.275 130.618 243.751 130.618 244.26Z" fill="#2A3244"/>
<path d="M145.348 243.88V243.917V247.234C145.348 247.635 144.993 247.964 144.559 247.964C144.125 247.964 143.731 247.635 143.731 247.234V243.917V243.88C143.731 243.115 143.022 242.495 142.154 242.495C141.326 242.495 140.616 243.151 140.616 243.953V247.271C140.616 247.307 140.616 247.344 140.616 247.38V247.417C140.616 247.453 140.616 247.49 140.577 247.49C140.577 247.49 140.577 247.526 140.577 247.562C140.459 247.818 140.143 248 139.828 248C139.749 248 139.71 248 139.67 248C139.315 247.927 139 247.635 139 247.271V243.953V241.766C139 241.328 139.355 241 139.789 241C140.104 241 140.38 241.146 140.498 241.438C140.971 241.182 141.563 241 142.115 241C143.061 241 143.928 241.365 144.48 241.984C145.032 241.365 145.9 241 146.846 241C148.581 241 150 242.312 150 243.953V247.271C150 247.672 149.645 248 149.211 248C148.778 248 148.384 247.672 148.384 247.271V243.953C148.384 243.151 147.674 242.495 146.846 242.495C146.057 242.458 145.387 243.115 145.348 243.88Z" fill="#2A3244"/>
<path d="M152.982 241C153.544 241 154 241.433 154 241.967C154 242.5 153.544 242.9 152.982 242.9C152.421 242.9 152 242.467 152 241.967C152 241.433 152.421 241 152.982 241ZM152.982 246.1C153.544 246.1 154 246.533 154 247.067C154 247.6 153.544 248 152.982 248C152.421 248 152 247.567 152 247.067C152 246.533 152.421 246.1 152.982 246.1Z" fill="#2A3244"/>
<path d="M124 67.9368V78.0632C124 78.5985 123.697 79 123.333 79C122.97 79 122.697 78.5539 122.697 78.0632V70.8364L121.03 74.2714C120.909 74.539 120.727 74.6729 120.515 74.6729C120.303 74.6729 120.121 74.539 119.97 74.2714L118.303 70.8364V78.0632C118.303 78.5985 118 79 117.636 79C117.273 79 117 78.5539 117 78.0632V67.9368C117 67.4015 117.303 67 117.636 67C117.636 67 117.636 67 117.667 67C117.848 67 118.061 67.1338 118.182 67.4015L120.515 72.1301L122.848 67.4015C122.97 67.1338 123.152 67 123.364 67C123.697 67.0446 124 67.4461 124 67.9368Z" fill="#2A3244"/>
<path d="M134.665 68.7843C135.487 69.871 136 71.3491 136 73.001C136 74.6529 135.487 76.1309 134.665 77.2177C133.878 78.3045 132.715 79 131.517 79C130.251 79 129.087 78.3045 128.3 77.2177C127.479 76.1309 127 74.6529 127 73.001C127 71.3491 127.479 69.871 128.3 68.7843C129.087 67.6975 130.251 67.0019 131.517 67.0019C132.749 66.9585 133.913 67.654 134.665 68.7843ZM134.494 73.001C134.494 71.8707 134.152 70.8274 133.605 70.0884C133.057 69.3494 132.304 68.9147 131.517 68.9147C130.662 68.9147 129.943 69.3494 129.395 70.0884C128.848 70.8274 128.506 71.8707 128.506 73.001C128.506 74.1312 128.848 75.1745 129.395 75.9135C129.943 76.6525 130.696 77.1307 131.517 77.1307C132.304 77.1307 133.057 76.696 133.605 75.9135C134.152 75.1745 134.494 74.1312 134.494 73.001Z" fill="#2A3244"/>
<path d="M140.862 78.0118C140.862 78.5508 140.419 78.9551 139.931 78.9551C139.399 78.9551 139 78.5059 139 78.0118V67.9947C139 67.6803 139.133 67.4108 139.355 67.1862C139.798 66.8717 140.374 66.9616 140.64 67.4108L146.138 75.1369V68.0396C146.138 67.5455 146.537 67.0963 147.069 67.0963C147.601 67.0963 148 67.5455 148 68.0396V78.0567C148 78.5957 147.557 79 147.069 79C146.803 79 146.537 78.8652 146.36 78.6406C146.315 78.5957 146.271 78.5508 146.271 78.5508L140.818 70.8696V78.0118H140.862Z" fill="#2A3244"/>
<path d="M150 78.0632V67.9368C150 67.4015 150.315 67 150.735 67H152.31C154.9 67 157 69.6766 157 72.9777C157 76.3234 154.9 79 152.31 79H150.735C150.35 79 150 78.5985 150 78.0632ZM151.505 77.1264H152.345C154.13 77.1264 155.565 75.2974 155.565 73.0223C155.565 70.7918 154.13 68.9182 152.345 68.9182H151.505V77.1264Z" fill="#2A3244"/>
<path d="M163.77 76.1907H160.268L159.553 78.4203C159.44 78.777 159.101 79 158.8 79C158.687 79 158.612 79 158.536 78.9554C158.122 78.777 157.896 78.1974 158.047 77.7068L161.247 67.5845C161.36 67.2278 161.699 66.9603 162 67.0049C162.339 67.0049 162.64 67.2278 162.753 67.5845L165.953 77.7068C166.104 78.1974 165.878 78.7324 165.464 78.9554C165.388 79 165.276 79 165.2 79C164.899 79 164.56 78.777 164.447 78.4203L163.77 76.1907ZM163.167 74.3179L162 70.6168L160.833 74.3179H163.167Z" fill="#2A3244"/>
<path d="M172.882 68.4944L170.206 73.364V78.0531C170.206 78.5942 169.902 79 169.495 79C169.123 79 168.784 78.5942 168.784 78.0531V73.364L166.143 68.4944C165.905 68.0886 165.973 67.5025 166.278 67.1869C166.617 66.8712 167.057 66.9614 167.26 67.4123L169.495 71.4702L171.73 67.4123C171.967 66.9614 172.408 66.8712 172.746 67.1869C173.017 67.5025 173.085 68.0886 172.882 68.4944Z" fill="#2A3244"/>
<path d="M283.532 57.1391L277.69 59L275 53.0645L280.842 51.2037C282.802 50.5941 284.992 51.3962 285.761 53.0324C286.491 54.7008 285.492 56.5296 283.532 57.1391Z" fill="#FFA595"/>
<path d="M274.86 52.4896L243.318 64.4486L245.862 71.1582L277.404 59.1992L274.86 52.4896Z" fill="#2A3244"/>
<path d="M243.474 64L246 71.1362L235.751 71.9988C235.056 72.038 234.727 71.097 235.276 70.6265L243.474 64Z" fill="#FEBC8B"/>
<path d="M236.377 69L235.18 70.5616C234.821 71.0548 235.037 72 235.492 72L237 71.7945L236.377 69Z" fill="#2A3244"/>
<path d="M273.462 55.7356L248.157 65.9314C247.72 66.1253 247.246 65.8927 247.064 65.4275C246.882 64.9623 247.101 64.4583 247.538 64.2644L272.843 54.0686C273.28 53.8747 273.754 54.1073 273.936 54.5725C274.118 55.0378 273.899 55.5805 273.462 55.7356Z" fill="white"/>
<path d="M250.338 60.7883C251.683 58.111 256.882 58.4761 261.899 61.6402C266.916 64.8043 262.008 74.5399 256.991 71.3758C251.937 68.2118 248.956 63.4656 250.338 60.7883Z" fill="#FEBC8B"/>
<path d="M314.4 340C321.838 340 322.961 343.986 323 348.959L296 349C296 344.027 306.963 340 314.4 340Z" fill="#2A3244"/>
<path d="M299.4 340C306.838 340 307.961 343.986 308 348.959L281 349C281 344.027 291.963 340 299.4 340Z" fill="#2A3244"/>
<path d="M284.191 120.238C297.324 126.776 309.758 128.955 311.928 125.081C314.098 121.241 266.496 97.5801 264.326 101.42C262.155 105.26 271.058 113.7 284.191 120.238Z" fill="#FEBC8B"/>
<path d="M343.643 205.22C346.652 224.619 330.024 271.109 317.383 272.987C308.466 274.312 309.181 175.441 317.721 174.19C330.325 172.276 340.52 185.012 343.643 205.22Z" fill="#000015"/>
<path d="M323.785 261.506C327.535 264.679 330 270.04 330 276.933C330 303.118 322.847 328.683 318.438 341.921C318.438 343.088 317.674 344 316.736 344C315.799 344 315.035 343.052 315.035 341.921L315 264.387C315 264.424 321.319 259.428 323.785 261.506Z" fill="#000015"/>
<path d="M317.949 208.64C316.987 235.654 299.6 271.635 290.515 272.984C281.536 274.297 292.403 193.657 294.006 175.21C305.158 173.533 318.946 181.627 317.949 208.64Z" fill="#000015"/>
<path d="M295.622 261.206C300.378 263.685 304.012 268.679 305.134 275.604C309.309 301.483 305.559 327.872 302.814 341.65C303.007 342.78 302.311 343.837 301.306 343.983C300.262 344.129 299.295 343.327 299.102 342.197L287 267.512C287 267.512 292.645 259.639 295.622 261.206Z" fill="#000015"/>
<path d="M335.281 151.774C338.985 166.39 346.025 177.158 350.938 175.9C355.852 174.605 342.395 121.728 337.445 123.023C332.495 124.318 331.541 137.195 335.281 151.774Z" fill="#FEBC8B"/>
<path d="M271.761 95.4848C269.389 87.6114 260.198 64.2845 257.677 65.0169C255.157 65.7493 260.309 90.2847 262.681 98.158C265.053 106.031 267.796 107.569 270.279 106.837C272.799 106.068 274.133 103.358 271.761 95.4848Z" fill="#FEBC8B"/>
<path d="M289.892 135.632C287.105 132.391 268.041 112.028 265.328 108.677C265.18 108.493 265.031 108.382 264.808 108.308C262.504 107.425 260.832 99.7285 263.024 99.618C270.085 99.2866 271.163 93.9103 273.058 95.1991C274.024 95.862 276.402 99.7285 276.179 101.496C276.105 102.048 276.402 102.601 276.96 102.822C282.608 105.031 296.284 112.58 300.558 115.231C300.781 115.379 301.078 115.452 301.375 115.415C305.054 115.01 309.737 115.158 313.527 115.158C319.176 115.158 324.564 116.152 329.47 117.956C331.699 118.619 334.375 119.761 337.385 121.05C343.591 123.701 356.077 156.916 354.925 172.971C354.702 175.807 354.145 178.605 351.507 179.71C350.392 180.189 349.723 180.52 348.682 180.594C347.567 180.667 344.186 179.563 343.851 177.537C343.145 172.898 342.588 176.101 342.142 173.524C341.956 173.45 342.811 196.465 343.405 204.124C343.442 204.787 342.997 205.339 342.328 205.45C328.243 207.475 307.098 207.807 292.01 204.677C291.379 204.566 290.97 203.977 291.007 203.351C292.605 182.214 292.865 162.182 290.152 136.258C290.152 136.037 290.041 135.816 289.892 135.632Z" fill="#DF3636"/>
<path d="M334.97 97.9818C336.094 94.3314 340.063 92.2142 343.809 93.2728C347.591 94.3314 349.764 98.1643 348.752 101.851C348.752 101.888 348.752 101.888 348.752 101.924V101.961C348.752 101.997 348.752 101.997 348.715 102.034C346.468 109.371 338.565 113.569 331 111.452L334.97 97.9818Z" fill="#000015"/>
<path d="M333.094 97.1666C332.729 98.7426 333.458 100.406 334.808 100.888C336.122 101.326 337.508 100.45 337.909 98.8302C338.274 97.2542 337.508 95.5906 336.194 95.1091C334.845 94.6713 333.458 95.5906 333.094 97.1666Z" fill="#EA8B83"/>
<path d="M330.706 106.72C337.842 99.5838 337.842 88.014 330.706 80.8781C323.57 73.7421 312 73.7421 304.864 80.8781C297.728 88.0141 297.728 99.5838 304.864 106.72C312 113.856 323.57 113.856 330.706 106.72Z" fill="#000015"/>
<path d="M314 120C316.763 120 319 117.616 319 114.672V106.328C319 103.384 316.763 101 314 101C311.237 101 309 103.384 309 106.328V114.672C309 117.616 311.237 120 314 120Z" fill="#FEBC8B"/>
<path d="M339.68 171.41C333.02 175.917 313.772 191.427 315.062 193.718C316.387 195.971 337.763 184.141 344.423 179.635C345.713 178.771 346.759 177.945 347.631 177.193C349.026 176.292 349.444 172.762 348.468 171.185C346.376 167.842 343.168 169.269 342.714 169.495C341.808 169.945 340.831 170.621 339.68 171.41Z" fill="#FEBC8B"/>
<path d="M305.002 193.069C304.884 196.092 309.838 198.757 316.09 198.996C322.341 199.235 322.774 188.296 316.522 188.017C310.271 187.779 305.12 190.046 305.002 193.069Z" fill="#FEBC8B"/>
<path d="M308.483 122H320.517C322.452 122 324 120.373 324 118.34V108.66C324 106.627 322.452 105 320.517 105H308.483C306.548 105 305 106.627 305 108.66V118.34C305 120.333 306.587 122 308.483 122Z" fill="#DF3636"/>
<path d="M324.878 100.637C327.242 92.4315 323.446 84.1335 316.399 82.1027C309.352 80.0719 301.722 85.0774 299.358 93.2828C296.993 101.488 300.789 109.786 307.836 111.817C314.884 113.848 322.513 108.842 324.878 100.637Z" fill="#FEBC8B"/>
<path d="M323.075 100.167C322.783 101.743 323.367 103.406 324.447 103.888C325.497 104.326 326.606 103.45 326.927 101.83C327.219 100.254 326.606 98.5906 325.556 98.1091C324.476 97.6713 323.367 98.5906 323.075 100.167Z" fill="#FEBC8B"/>
<path d="M310.345 77L331 84.0064L326.686 101.703C324.478 102.183 322.134 102.103 319.823 101.302C311.874 98.6199 307.288 88.8109 309.598 79.4422C309.802 78.6015 310.04 77.8007 310.345 77Z" fill="#000015"/>
<path d="M297.215 91.7897C296.486 94.4793 297.675 97.2103 299.862 97.8724C301.818 98.493 303.928 97.2103 304.849 94.9759L306.767 95.5552C306.46 97.9551 307.611 100.231 309.568 100.852C311.716 101.514 314.095 99.8999 314.785 97.2103C315.514 94.5207 314.325 91.7897 312.138 91.1276C310.258 90.5483 308.263 91.7069 307.266 93.7759L305.271 93.1552C305.463 90.838 304.35 88.7277 302.47 88.1484C300.284 87.4863 297.943 89.1001 297.215 91.7897ZM307.65 95.0172C308.263 92.7828 310.143 91.4173 311.908 91.9552C313.673 92.4931 314.594 94.769 314.018 97.0034C313.404 99.2379 311.524 100.603 309.76 100.065C307.995 99.5275 307.036 97.2517 307.65 95.0172ZM297.982 92.038C298.596 89.8035 300.476 88.438 302.24 88.9759C304.005 89.5139 304.926 91.7897 304.35 94.0241C303.736 96.2586 301.857 97.6241 300.092 97.0862C298.327 96.5069 297.368 94.2724 297.982 92.038Z" fill="#2A3244"/>
</svg>
